<?xml version="1.0" standalone="no"?>
<!DOCTYPE svg PUBLIC "-//W3C//DTD SVG 20010904//EN"
 "http://www.w3.org/TR/2001/REC-SVG-20010904/DTD/svg10.dtd">
<svg version="1.0" xmlns="http://www.w3.org/2000/svg"
 width="1200.000000pt" height="1200.000000pt" viewBox="0 0 1200.000000 1200.000000"
 preserveAspectRatio="xMidYMid meet">

<g transform="translate(0.000000,1200.000000) scale(0.100000,-0.100000)"
fill="#000000" stroke="none">
<path d="M0 6000 l0 -6000 2154 0 c1963 0 2172 2 2357 17 208 18 252 19 534 5
88 -4 207 -5 265 -2 76 4 111 2 127 -7 18 -11 636 -13 3293 -13 l3270 0 0
6000 0 6000 -6000 0 -6000 0 0 -6000z m4649 5893 c6 -10 11 -13 11 -7 0 15 68
13 95 -3 19 -11 19 -12 -5 -36 -64 -65 -73 -84 -67 -149 6 -68 27 -105 27 -47
0 21 10 50 27 73 l26 39 19 -22 18 -23 0 29 c0 22 7 33 25 41 33 15 42 -4 39
-88 -1 -38 4 -78 11 -95 8 -16 15 -48 17 -70 3 -37 1 -40 -27 -45 -17 -3 -42
-5 -57 -5 -15 1 -30 -5 -32 -12 -4 -9 -12 -10 -28 -4 -30 11 -61 -16 -35 -31
10 -5 17 -19 18 -31 0 -21 1 -21 9 -2 8 19 9 19 9 1 1 -11 4 -17 7 -13 3 3 14
-3 25 -14 27 -27 49 -24 49 6 0 14 -4 25 -10 25 -13 0 -13 27 0 35 16 10 40
-14 40 -39 0 -17 13 -28 58 -48 61 -29 204 -78 226 -78 24 0 49 -39 51 -80 2
-28 -1 -40 -11 -40 -8 0 -14 -4 -14 -10 0 -5 8 -10 18 -10 13 0 14 -2 3 -9
-10 -6 -10 -10 -1 -16 8 -5 7 -10 -4 -18 -20 -16 -25 -89 -7 -95 7 -2 17 2 22
9 7 11 9 10 9 -4 0 -20 20 -18 68 6 17 8 25 8 30 0 4 -6 19 -15 35 -18 15 -4
24 -11 21 -16 -3 -5 0 -9 5 -9 6 0 11 -7 11 -15 0 -8 6 -15 14 -15 11 0 13 -7
7 -27 -11 -41 -4 -125 11 -135 9 -5 6 -8 -9 -8 -24 0 -32 -15 -12 -22 8 -3 5
-10 -6 -22 -14 -13 -15 -20 -6 -25 13 -9 11 -32 -4 -43 -6 -5 -3 -8 7 -8 20 0
38 -29 38 -62 0 -13 11 -35 25 -50 14 -15 25 -33 25 -39 0 -7 7 -20 15 -29 12
-14 13 -23 5 -46 -6 -16 -17 -34 -25 -40 -16 -12 -80 -5 -170 20 -95 27 -201
37 -269 26 -34 -5 -83 -10 -111 -11 -27 0 -83 -8 -123 -16 -58 -12 -85 -13
-130 -5 -90 17 -196 -3 -244 -47 -23 -20 -28 -32 -28 -72 0 -26 4 -49 10 -51
5 -1 14 -24 18 -49 7 -37 20 -57 73 -111 35 -36 72 -77 82 -92 25 -37 116
-103 152 -110 22 -5 25 -4 10 2 -17 8 -14 10 20 16 26 5 41 4 43 -3 5 -16 22
-13 22 4 0 8 5 15 10 15 6 0 10 6 10 14 0 8 5 18 10 21 6 4 10 -5 10 -19 0
-16 -6 -26 -15 -26 -8 0 -15 -5 -15 -11 0 -12 93 -6 218 15 40 7 74 10 77 8 5
-5 198 -3 246 3 19 3 84 7 144 9 108 5 174 22 157 42 -4 5 2 1 13 -8 11 -9 32
-20 48 -23 15 -4 27 -13 27 -21 0 -16 18 -51 37 -71 19 -21 9 -90 -17 -118
-13 -13 -27 -22 -32 -19 -5 3 -12 -3 -15 -15 -3 -12 -12 -21 -19 -21 -8 0 -14
-4 -14 -9 0 -17 -46 -61 -63 -61 -9 0 -22 -9 -30 -20 -8 -11 -16 -17 -20 -14
-6 6 -60 -32 -107 -73 -14 -13 -31 -23 -38 -23 -11 0 -44 -32 -116 -110 -27
-30 -46 -79 -44 -117 1 -21 -1 -45 -3 -53 -2 -8 2 -14 9 -12 14 2 15 -7 2 -28
-9 -13 -10 -13 -11 0 -1 8 -5 -1 -9 -20 -6 -24 -5 -37 3 -42 9 -6 9 -8 1 -8
-7 0 -11 -11 -10 -25 0 -14 4 -25 9 -25 4 0 7 -4 7 -10 0 -5 -7 -7 -15 -4 -8
4 -15 1 -15 -5 0 -6 8 -11 18 -11 14 0 14 -2 3 -9 -12 -8 -12 -12 2 -26 19
-18 23 -30 7 -20 -5 3 -10 -1 -10 -9 0 -9 -4 -16 -9 -16 -14 0 35 -92 63 -118
14 -13 23 -30 20 -38 -15 -49 -15 -49 -24 -34 -7 12 -12 12 -28 -3 -10 -9 -24
-17 -30 -17 -7 0 -12 -4 -12 -10 0 -5 7 -10 17 -10 9 0 13 -3 10 -6 -9 -10
-68 17 -61 27 3 5 -1 9 -9 9 -8 0 -23 8 -35 18 -11 9 -30 25 -41 34 -12 10
-21 13 -21 7 0 -8 -4 -8 -13 0 -8 6 -22 12 -33 14 -10 2 -28 8 -39 14 -38 20
-99 36 -139 36 -49 -1 -148 -32 -140 -44 3 -5 -12 -10 -33 -10 -21 -1 -49 -3
-61 -4 -31 -3 -90 15 -124 38 -14 10 -34 18 -45 18 -47 -1 -92 -9 -123 -23
-56 -25 -74 -31 -85 -29 -5 2 -27 4 -47 6 -33 4 -39 1 -58 -30 -18 -29 -28
-35 -56 -35 -23 0 -47 -9 -69 -27 -40 -32 -62 -36 -89 -17 -36 25 -78 18 -103
-19 -36 -55 -54 -145 -34 -176 5 -8 27 -15 48 -16 21 -1 56 -9 78 -19 l40 -17
27 33 c15 18 30 47 34 63 21 97 75 134 211 146 54 4 130 13 168 18 83 12 174
8 233 -8 47 -13 54 -26 20 -37 -13 -4 -33 -17 -45 -30 -23 -25 -43 -31 -43
-13 0 12 -27 6 -79 -18 -20 -9 -47 -13 -67 -10 -23 4 -34 2 -35 -6 0 -9 -2 -9
-5 -1 -3 7 -14 10 -25 7 -10 -3 -26 0 -34 7 -12 10 -16 9 -21 -4 -3 -9 -13
-16 -20 -16 -8 0 -25 -6 -37 -14 -12 -8 -51 -20 -87 -26 -36 -7 -76 -14 -88
-16 -16 -3 -22 -10 -18 -19 3 -8 1 -15 -5 -15 -6 0 -8 -4 -5 -9 7 -10 19 -125
20 -183 1 -35 3 -38 31 -37 26 0 28 2 10 10 -16 7 -14 9 13 6 21 -2 37 2 47
13 9 10 27 16 40 14 14 -1 25 2 25 6 0 5 24 8 53 8 65 -1 205 20 232 35 11 7
76 12 151 13 73 1 137 5 144 9 6 4 16 3 22 -3 16 -16 80 -1 100 22 10 12 17
15 18 9 0 -7 5 -13 10 -13 7 0 7 6 0 19 -14 27 -13 31 8 31 11 0 27 9 37 20
19 21 55 27 55 10 0 -5 5 -10 10 -10 6 0 10 7 10 15 0 10 -10 15 -30 15 -16 0
-30 5 -30 11 0 5 -4 7 -10 4 -5 -3 -15 3 -21 13 -7 11 -20 17 -29 15 -10 -3
-21 1 -25 8 -5 8 -4 10 3 5 13 -8 15 -4 6 18 -3 8 -12 12 -19 9 -9 -3 -17 5
-21 21 -3 14 -10 26 -16 26 -5 0 -6 5 -3 11 5 7 25 8 59 3 28 -4 58 -7 66 -7
8 0 24 -6 35 -13 11 -8 28 -14 38 -14 15 0 18 -5 15 -24 -7 -34 17 -41 31 -10
6 13 18 24 26 24 9 0 14 4 10 9 -3 5 -1 12 4 15 5 3 12 -1 15 -9 3 -8 11 -14
18 -13 8 2 14 -10 16 -29 2 -18 7 -33 11 -33 4 0 5 -23 1 -50 -4 -28 -3 -53 2
-56 5 -3 6 -10 2 -15 -3 -5 -1 -16 5 -22 7 -9 6 -27 -4 -61 -15 -50 -13 -118
5 -124 35 -12 -12 -69 -87 -107 -32 -17 -59 -33 -61 -37 -12 -26 -237 -46
-254 -23 -5 6 -8 4 -8 -5 0 -13 -1 -13 -10 0 -7 11 -10 11 -10 2 0 -7 -4 -11
-9 -8 -5 4 -38 -1 -73 -10 -124 -31 -177 -41 -183 -36 -3 3 -5 0 -5 -7 0 -7
-4 -10 -9 -7 -5 4 -22 1 -38 -5 -40 -16 -104 -31 -133 -30 -14 0 -41 -6 -61
-14 -20 -7 -69 -14 -111 -14 -41 0 -86 -4 -99 -9 -51 -20 -151 16 -164 59 -4
10 -10 19 -14 19 -13 0 -104 190 -117 246 -4 16 -12 36 -19 44 -7 8 -20 35
-28 60 -9 25 -17 38 -17 30 -4 -36 3 -111 16 -184 11 -63 11 -82 1 -88 -7 -4
-13 -2 -15 7 -2 8 -11 15 -20 15 -21 0 -62 88 -69 148 -3 23 -10 42 -14 42 -5
0 -9 7 -9 15 0 8 -5 15 -11 15 -6 0 -9 7 -5 15 3 8 1 15 -5 15 -6 0 -8 7 -5
17 4 9 1 20 -6 25 -11 6 -10 10 1 17 7 5 9 11 4 14 -13 8 -16 107 -3 107 5 0
10 7 10 17 0 14 2 14 21 -3 22 -19 22 -19 17 9 -6 30 11 92 26 94 19 3 25 32
17 84 -11 65 -53 189 -81 236 -11 19 -20 40 -20 47 0 7 -18 20 -40 29 -22 10
-59 25 -82 35 -23 9 -45 17 -49 17 -4 0 -18 12 -32 27 -14 15 -28 24 -31 21
-16 -16 -4 169 15 243 25 97 46 135 85 153 40 19 64 41 64 60 0 9 4 22 9 30
13 21 44 -5 36 -30 -3 -9 -2 -20 3 -23 9 -5 108 16 116 25 11 11 15 56 6 69
-9 13 -11 13 -20 0 -7 -11 -10 -11 -10 -2 0 7 -5 10 -11 7 -17 -11 -119 5
-119 19 0 13 53 56 69 56 24 0 22 66 -3 82 -17 11 5 40 43 55 30 13 33 12 62
-19 26 -29 32 -31 42 -17 7 8 20 18 30 22 10 4 15 11 12 17 -3 5 -1 10 4 10
10 0 16 -21 12 -42 0 -5 3 -8 8 -8 5 0 11 12 13 27 3 24 4 25 18 11 9 -8 26
-18 38 -22 12 -4 21 -12 19 -19 -1 -7 11 -10 33 -8 33 2 35 0 37 -31 2 -21 -1
-28 -6 -19 -6 10 -10 10 -16 1 -14 -22 12 -34 37 -18 18 12 36 52 72 159 40
122 48 156 48 224 0 50 -4 81 -11 83 -6 2 -11 8 -11 14 0 6 -10 22 -22 37 -21
23 -30 26 -88 26 -52 0 -71 -4 -93 -22 -33 -26 -138 -65 -222 -84 -74 -16
-181 -73 -203 -108 -9 -14 -24 -33 -34 -42 -10 -9 -18 -21 -18 -28 0 -6 -5
-11 -11 -11 -5 0 -8 -4 -4 -9 3 -5 1 -12 -5 -16 -5 -3 -10 -15 -10 -26 0 -10
-5 -19 -11 -19 -12 0 -11 10 11 140 12 69 13 113 4 144 -11 34 -6 236 5 236 3
0 7 17 8 37 3 51 12 85 22 79 4 -3 8 9 8 26 0 19 7 36 19 45 10 8 19 17 20 21
10 90 68 292 87 300 4 2 16 21 27 42 21 41 17 51 -27 64 -11 4 -24 13 -27 21
-8 21 -27 19 -20 -2 3 -10 -4 -4 -16 14 -37 55 -24 163 28 225 59 72 100 112
155 155 47 37 58 50 54 68 -3 17 0 22 10 18 15 -6 45 15 38 27 -7 11 5 40 16
40 4 0 25 11 45 25 20 14 40 22 45 20 12 -8 71 19 94 41 10 10 21 19 24 19 3
0 20 10 36 21 17 12 48 27 70 34 22 7 57 19 78 26 47 17 47 18 48 -3 0 -10 3
-13 5 -7 3 8 20 10 46 6 33 -4 40 -2 33 9 -7 12 -6 12 7 1 12 -9 18 -10 23 -2
4 6 13 9 21 6 8 -3 14 -1 14 4 0 5 25 21 56 36 45 22 57 25 64 14 7 -12 12
-12 27 2 34 30 107 37 122 11z m425 -43 c33 -12 34 -30 2 -30 -14 0 -28 -4
-31 -10 -3 -5 4 -10 16 -10 18 0 19 -2 9 -15 -14 -17 -55 -21 -45 -4 15 23 -5
58 -38 68 -31 9 -31 9 15 10 26 1 58 -3 72 -9z m-136 -37 c-2 -14 -10 -29 -18
-31 -13 -5 -13 -3 -1 11 9 11 10 17 2 17 -6 0 -11 7 -11 15 0 8 7 15 16 15 11
0 14 -8 12 -27z m331 -22 c86 -30 98 -37 88 -48 -4 -3 -15 1 -24 9 -16 14 -68
31 -98 33 -5 0 -15 4 -22 8 -6 4 -18 4 -27 1 -9 -3 -16 -1 -16 4 0 6 -8 13
-17 15 -12 3 -9 5 7 6 14 0 63 -12 109 -28z m-12 -45 c10 -8 -13 -46 -27 -46
-10 0 -22 -9 -25 -21 -5 -16 -12 -19 -31 -15 -14 4 -24 2 -24 -4 0 -6 -4 -8
-10 -5 -17 10 -11 25 10 25 11 0 20 7 20 15 0 14 17 20 47 16 10 -1 10 5 3 24
-9 24 -8 26 12 19 13 -3 24 -7 25 -8z m33 -16 c0 -5 -2 -10 -4 -10 -3 0 -8 5
-11 10 -3 6 -1 10 4 10 6 0 11 -4 11 -10z m180 -30 c8 -5 11 -10 5 -10 -5 0
-17 5 -25 10 -8 5 -10 10 -5 10 6 0 17 -5 25 -10z m-512 -116 c2 -32 -1 -45
-10 -42 -19 7 -32 57 -18 73 20 24 27 17 28 -31z m717 25 c47 -5 78 -17 140
-53 107 -64 145 -89 145 -100 0 -4 -15 3 -33 17 -46 35 -137 60 -137 37 0 -5
8 -10 18 -10 11 0 27 -10 38 -22 12 -14 13 -18 3 -10 -9 6 -19 9 -22 6 -3 -3
-20 4 -36 16 -17 12 -31 18 -31 13 0 -4 -11 5 -25 20 -14 15 -33 27 -41 27 -8
0 -12 5 -9 10 3 6 -1 10 -9 10 -9 0 -16 4 -16 10 0 5 -16 16 -35 24 -19 8 -35
18 -35 21 0 3 6 3 13 -2 6 -4 39 -10 72 -14z m-475 -19 c0 -5 -2 -10 -4 -10
-3 0 -8 5 -11 10 -3 6 -1 10 4 10 6 0 11 -4 11 -10z m-10 -30 c0 -5 -4 -10
-10 -10 -5 0 -10 5 -10 10 0 6 5 10 10 10 6 0 10 -4 10 -10z m-1480 -20 c0 -5
-5 -10 -11 -10 -5 0 -7 5 -4 10 3 6 8 10 11 10 2 0 4 -4 4 -10z m1243 -70 c-5
-20 -23 -26 -36 -13 -9 8 12 33 28 33 8 0 11 -8 8 -20z m-58 0 c3 -5 -1 -10
-10 -10 -9 0 -13 5 -10 10 3 6 8 10 10 10 2 0 7 -4 10 -10z m55 -54 c0 -8 6
-16 13 -19 6 -2 10 -7 7 -9 -3 -3 -15 -2 -27 3 -15 5 -21 14 -17 24 8 19 24
20 24 1z m1105 -36 c3 -5 2 -10 -4 -10 -5 0 -13 5 -16 10 -3 6 -2 10 4 10 5 0
13 -4 16 -10z m68 -47 c10 -13 23 -23 28 -23 5 0 19 -9 31 -19 13 -11 34 -29
47 -40 13 -12 22 -23 19 -26 -3 -3 -18 7 -34 21 -16 14 -52 43 -81 65 -57 42
-75 63 -46 52 10 -4 26 -17 36 -30z m-528 -123 c-18 -20 -45 -27 -45 -12 0 7
37 28 54 31 5 0 1 -8 -9 -19z m695 -10 c0 -5 -7 -10 -15 -10 -8 0 -15 5 -15
10 0 6 7 10 15 10 8 0 15 -4 15 -10z m-430 -84 c0 -3 -4 -8 -10 -11 -5 -3 -10
-1 -10 4 0 6 5 11 10 11 6 0 10 -2 10 -4z m-2370 -100 c0 -5 8 -18 17 -28 15
-17 15 -18 1 -13 -21 8 -48 49 -48 72 0 15 2 15 15 -3 8 -10 15 -23 15 -28z
m1877 -2 c-3 -3 -12 -4 -19 -1 -8 3 -5 6 6 6 11 1 17 -2 13 -5z m70 -140 c-3
-3 -12 -4 -19 -1 -8 3 -5 6 6 6 11 1 17 -2 13 -5z m-1810 -891 c3 -7 -6 -17
-19 -22 -31 -12 -64 -45 -83 -81 -19 -37 -27 -38 -19 -2 12 48 44 103 67 112
28 11 49 9 54 -7z m1678 -873 c3 -5 -1 -10 -9 -10 -9 0 -16 5 -16 10 0 6 4 10
9 10 6 0 13 -4 16 -10z m325 -324 c0 -2 -7 -6 -15 -10 -8 -3 -15 -1 -15 4 0 6
7 10 15 10 8 0 15 -2 15 -4z m-40 -26 c0 -5 -4 -10 -10 -10 -5 0 -10 5 -10 10
0 6 5 10 10 10 6 0 10 -4 10 -10z m54 -30 c-1 -16 2 -30 7 -30 17 0 9 -38 -8
-43 -10 -3 -1 -5 21 -6 30 -1 37 2 32 14 -3 8 0 15 5 15 7 0 9 -11 7 -25 -4
-17 -1 -25 9 -25 8 0 11 -5 8 -10 -4 -7 -12 -7 -25 0 -29 15 -32 12 -10 -10
11 -11 24 -20 29 -20 5 0 11 -9 14 -19 3 -14 1 -18 -9 -14 -8 3 -14 9 -14 14
0 5 -4 9 -10 9 -5 0 -10 -9 -10 -20 0 -11 -4 -20 -8 -20 -4 0 -8 -18 -7 -40 0
-22 3 -40 8 -40 4 0 7 -13 7 -28 0 -24 -4 -28 -27 -27 -39 2 -83 -22 -83 -44
0 -10 -9 -26 -19 -35 -19 -17 -20 -17 -32 5 -15 30 -6 158 15 200 9 18 16 38
16 46 0 7 6 13 14 13 10 0 14 13 12 51 -1 28 2 53 6 55 14 9 8 26 -7 20 -8 -3
-15 -1 -15 4 0 6 9 10 20 10 10 0 25 7 32 15 19 21 24 18 22 -15z m326 -1154
c0 -13 7 -26 15 -30 8 -3 15 -15 15 -27 0 -16 3 -19 13 -11 10 9 13 4 14 -23
1 -19 -3 -35 -8 -35 -4 0 -6 -7 -3 -15 4 -9 1 -15 -7 -15 -8 0 -5 -6 7 -15 17
-13 17 -16 3 -24 -9 -6 -16 -27 -17 -51 -2 -25 1 -39 7 -36 15 9 25 -14 23
-51 -2 -18 1 -33 6 -33 5 0 15 -11 22 -25 7 -13 17 -22 22 -19 5 3 12 -3 15
-15 3 -12 9 -21 14 -21 5 0 9 -6 9 -14 0 -10 -7 -12 -22 -8 -20 5 -21 3 -10
-11 8 -9 13 -35 12 -59 -3 -74 -1 -88 15 -88 8 0 15 5 15 10 0 6 -5 10 -12 10
-6 0 -9 2 -6 5 10 11 68 -8 68 -22 0 -9 -6 -13 -14 -10 -9 4 -16 -3 -19 -20
-4 -22 -2 -24 19 -20 23 4 46 -12 43 -29 -4 -24 3 -45 21 -62 13 -12 18 -25
14 -36 -5 -12 -2 -15 12 -9 12 5 15 3 9 -6 -5 -10 -2 -11 12 -7 17 5 21 2 21
-20 0 -15 8 -33 18 -41 17 -12 17 -13 -2 -14 -12 0 -6 -5 15 -13 19 -7 37 -19
39 -27 3 -8 10 -17 16 -21 8 -5 7 -8 -1 -8 -22 0 -14 -18 10 -22 25 -3 42 22
53 77 5 29 10 34 28 31 11 -3 22 -5 24 -7 1 -1 6 -2 10 -3 5 0 17 -10 27 -20
19 -19 20 -19 26 5 7 23 7 22 9 -6 1 -16 4 -24 7 -17 13 32 55 -8 67 -65 4
-19 15 -35 27 -38 10 -4 19 -10 19 -15 0 -5 15 -12 34 -16 19 -3 37 -13 40
-21 4 -10 13 -12 27 -8 17 6 21 4 16 -8 -9 -24 3 -27 26 -6 11 10 27 19 34 19
7 0 13 5 13 10 0 6 11 15 25 22 13 6 22 14 20 19 -3 4 4 5 16 2 20 -6 20 -4
18 200 -1 113 -6 204 -11 201 -11 -7 -88 71 -88 91 0 34 22 55 75 71 125 40
274 -27 426 -190 38 -41 51 -50 85 -51 141 -7 359 -40 458 -69 126 -37 262
-94 305 -128 19 -14 26 -16 33 -6 6 10 8 10 8 -1 0 -7 24 -37 54 -66 57 -56
116 -135 116 -155 0 -7 7 -10 15 -7 19 8 117 -18 185 -49 59 -27 112 -60 175
-111 l40 -31 115 36 c105 33 125 36 235 37 111 0 124 -2 179 -28 56 -27 145
-83 156 -98 3 -4 55 -23 115 -44 61 -20 137 -52 170 -71 106 -62 169 -104 157
-104 -7 0 -12 -5 -12 -11 0 -7 11 -9 28 -5 15 3 21 3 15 0 -10 -4 -10 -11 -2
-27 11 -19 13 -19 24 -3 11 14 15 15 26 3 8 -7 20 -12 27 -9 6 2 12 -1 12 -6
0 -5 12 -7 28 -5 16 3 22 1 15 -4 -6 -5 9 -8 37 -9 80 -1 102 -38 66 -109 -11
-22 -19 -45 -18 -51 1 -6 -7 -19 -18 -29 -11 -10 -20 -23 -20 -28 0 -14 -44
-101 -52 -105 -5 -2 -8 -10 -8 -17 0 -8 -9 -17 -21 -20 -11 -4 -18 -13 -15
-20 2 -7 -4 -15 -15 -18 -10 -3 -22 -12 -25 -22 -9 -23 -63 -75 -78 -75 -7 0
-18 -11 -24 -25 -6 -14 -17 -25 -23 -25 -6 0 -19 -10 -29 -22 -10 -13 -35 -32
-56 -43 -22 -11 -49 -30 -61 -42 -12 -13 -32 -23 -45 -23 -13 0 -45 -11 -73
-25 -27 -13 -55 -25 -61 -25 -6 0 -23 -11 -38 -25 -14 -13 -26 -21 -26 -18 0
3 -7 0 -15 -7 -8 -7 -15 -9 -15 -4 0 5 -4 5 -8 -1 -10 -15 -49 -35 -67 -35 -8
0 -15 -4 -15 -10 0 -5 -12 -12 -27 -16 -25 -5 -87 -25 -133 -42 -8 -3 -19 -4
-24 -3 -5 1 -12 -2 -15 -6 -8 -12 -125 -63 -143 -63 -8 0 -29 -7 -46 -15 -17
-9 -40 -18 -51 -20 -11 -2 -35 -11 -53 -19 -18 -8 -62 -25 -98 -36 -36 -12
-69 -25 -75 -28 -5 -4 -12 -7 -15 -8 -20 -4 -73 -18 -115 -32 -62 -20 -76 -23
-95 -23 -19 0 -88 -18 -115 -30 -11 -5 -38 -11 -60 -13 -97 -11 -141 -18 -150
-26 -5 -5 -30 -11 -55 -15 -54 -8 -59 -11 -70 -39 -7 -17 -9 -17 -9 -3 -1 17
-31 25 -31 7 0 -6 -23 -8 -56 -5 -48 4 -55 3 -50 -11 5 -13 -1 -15 -29 -12
-19 2 -33 -1 -32 -7 1 -5 8 -9 15 -9 6 1 12 -2 12 -6 0 -10 -38 -20 -42 -10
-2 4 -13 10 -25 14 -17 5 -24 1 -34 -24 -10 -21 -21 -30 -36 -30 -13 0 -23 5
-23 10 0 21 -28 9 -34 -15 -5 -21 -11 -24 -34 -19 -21 4 -24 3 -12 -5 12 -9 6
-11 -25 -8 -22 2 -45 6 -52 10 -6 4 -16 1 -22 -7 -7 -9 -29 -13 -56 -12 -25 0
-45 -2 -45 -5 0 -3 -26 -6 -57 -7 -41 0 -59 -5 -65 -17 -7 -12 -13 -13 -23 -5
-10 9 -19 8 -37 -3 -13 -8 -38 -18 -56 -22 -18 -4 -40 -14 -49 -23 -11 -11
-35 -18 -72 -19 -31 -1 -56 -2 -56 -3 0 -8 -53 -5 -64 4 -11 8 -13 8 -7 -1 4
-7 2 -13 -3 -13 -6 0 -11 4 -11 9 0 17 -34 22 -42 7 -5 -8 -15 -13 -23 -9 -9
3 -21 0 -29 -6 -7 -6 -25 -12 -39 -13 -14 -1 -25 -7 -24 -12 1 -6 -14 -9 -34
-7 -20 1 -56 -3 -80 -9 -71 -20 -90 -21 -104 -10 -9 7 -16 6 -25 -5 -7 -8 -19
-15 -26 -15 -8 0 -14 -4 -14 -9 0 -6 -16 -7 -36 -4 -24 4 -39 2 -44 -7 -5 -8
-27 -13 -54 -14 -25 0 -46 -3 -46 -8 0 -4 -8 -4 -17 -1 -12 5 -15 2 -10 -10 8
-20 -3 -21 -38 -5 -19 9 -28 9 -37 0 -16 -16 -28 -15 -28 3 0 8 -4 15 -10 15
-5 0 -10 -7 -10 -16 0 -8 -5 -12 -11 -9 -6 4 -8 12 -6 19 3 7 -5 11 -22 10
-14 -1 -32 3 -38 9 -9 7 -13 5 -13 -6 0 -8 5 -17 11 -19 7 -2 5 -9 -5 -17 -14
-12 -16 -10 -16 15 -1 28 -1 28 -15 10 -11 -14 -12 -23 -4 -33 9 -10 7 -13 -9
-13 -15 0 -20 5 -16 15 4 10 0 15 -11 15 -9 0 -14 -4 -10 -9 11 -20 -14 -20
-28 -1 -14 21 -29 17 -21 -5 6 -16 -12 -29 -26 -20 -8 5 -8 11 0 20 8 9 6 14
-5 19 -9 3 -15 0 -15 -9 0 -7 -8 -16 -19 -20 -12 -3 -18 -15 -18 -31 0 -14 4
-23 11 -21 6 2 11 12 11 22 0 27 23 30 27 4 3 -26 28 -39 28 -15 0 20 16 21
24 1 3 -9 12 -12 21 -9 9 4 14 13 11 20 -6 17 -1 17 24 4 13 -7 21 -7 25 0 3
5 11 10 17 10 7 0 6 -6 -2 -15 -10 -12 -10 -15 3 -15 9 0 21 8 26 18 7 11 10
13 11 3 0 -11 3 -11 15 -1 9 7 18 10 22 7 10 -11 -26 -55 -49 -60 -15 -3 -10
-5 14 -6 20 0 40 4 43 9 10 16 65 12 65 -5 0 -20 10 -19 26 3 12 16 13 15 14
-5 0 -24 14 -31 26 -12 4 8 9 8 17 0 8 -8 16 -6 28 5 12 11 19 12 24 4 4 -7 1
-16 -6 -21 -10 -6 -7 -9 12 -9 14 0 30 -5 37 -12 9 -9 12 -8 12 5 0 19 15 23
26 6 3 -6 1 -15 -6 -19 -9 -6 -6 -11 10 -20 20 -11 22 -10 17 4 -4 9 -2 16 3
16 5 0 11 8 13 18 3 9 5 0 6 -21 1 -24 5 -36 12 -32 13 9 40 -25 34 -42 -2 -7
0 -13 5 -13 6 0 11 17 12 38 l1 37 4 -36 c4 -32 7 -36 28 -31 14 2 22 8 19 13
-10 17 15 9 28 -9 21 -28 100 -41 182 -30 46 6 72 6 74 0 1 -5 12 -8 22 -5 15
4 20 0 20 -16 0 -29 12 -26 32 9 16 28 48 42 48 20 0 -5 9 -10 20 -10 13 0 17
-5 14 -14 -4 -11 0 -13 16 -9 16 4 18 8 8 14 -8 5 1 6 22 2 19 -3 38 -10 41
-16 4 -5 16 -6 28 -2 18 5 21 2 21 -19 0 -16 6 -26 15 -26 9 0 15 9 15 25 0
20 5 25 27 25 15 0 37 -10 50 -22 18 -17 26 -19 35 -10 7 7 32 11 57 10 44 -1
44 -2 9 -5 -21 -2 -38 -8 -38 -12 0 -10 93 -7 110 4 9 5 15 4 18 -3 5 -17 22
-15 22 3 0 8 5 15 10 15 6 0 10 -7 10 -16 0 -8 5 -12 10 -9 6 4 8 11 5 16 -4
5 4 9 15 9 16 0 20 -5 16 -15 -6 -17 9 -21 19 -4 4 6 -1 17 -11 25 -17 13 -16
14 21 13 22 -1 48 -3 58 -6 26 -7 21 -22 -5 -16 l-23 5 23 -17 c13 -9 30 -14
38 -11 9 3 12 1 9 -4 -7 -12 5 -13 23 -1 7 4 12 14 10 22 -2 8 4 14 12 14 8 0
20 7 27 15 6 8 15 12 19 7 4 -4 2 -7 -4 -7 -7 0 -12 -4 -12 -8 0 -17 99 -4
142 19 24 13 28 12 29 -8 0 -16 1 -16 8 1 7 18 8 18 14 3 9 -24 27 -21 28 6 1
21 1 21 8 -2 7 -26 31 -41 31 -20 0 8 13 10 43 6 28 -4 48 -2 55 5 9 9 12 9
12 1 0 -7 -4 -15 -10 -18 -24 -15 -5 -21 68 -20 72 0 77 1 80 23 2 12 8 22 13
22 14 0 11 -48 -3 -53 -7 -3 4 -6 25 -6 34 -1 38 1 32 19 -9 27 12 26 36 -2
18 -20 20 -20 38 -4 12 11 21 14 26 7 3 -6 2 -11 -3 -11 -5 0 -9 -10 -8 -22 0
-13 -4 -22 -10 -21 -7 1 -10 -6 -7 -17 6 -24 23 -26 23 -3 0 12 3 14 11 6 15
-15 7 -58 -11 -59 -31 -2 -34 -6 -15 -14 17 -7 17 -9 3 -9 -10 -1 -18 -5 -18
-10 0 -12 -27 -21 -44 -15 -8 3 -13 14 -11 25 2 10 -4 23 -13 29 -13 7 -13 9
-3 10 8 0 11 3 8 7 -10 10 -47 -28 -47 -49 0 -10 -7 -18 -17 -19 -14 0 -12 -3
6 -12 19 -9 25 -9 29 1 2 6 7 12 11 12 12 0 9 -34 -2 -42 -7 -4 -7 -11 1 -21
9 -10 9 -21 0 -45 -7 -18 -16 -32 -20 -32 -4 0 -8 -11 -8 -25 0 -16 6 -25 15
-25 8 0 15 -6 15 -14 0 -21 -42 -7 -47 16 -8 28 -26 22 -21 -7 3 -14 1 -25 -3
-25 -5 0 -9 6 -9 14 0 17 -45 27 -59 13 -6 -6 -11 -17 -11 -25 0 -7 -4 -10
-10 -7 -5 3 -7 19 -4 34 4 17 1 32 -6 36 -9 5 -10 2 -6 -13 8 -25 -20 -63 -41
-55 -8 3 -19 0 -24 -8 -6 -10 -9 -10 -9 -1 0 18 -27 15 -34 -4 -6 -15 -8 -15
-24 3 -13 14 -24 17 -47 12 -54 -12 -75 -10 -75 7 0 12 -7 15 -25 12 -18 -4
-25 -1 -26 11 -1 14 -2 14 -6 -1 -2 -9 -11 -19 -20 -22 -11 -5 -14 -1 -11 12
5 16 0 19 -26 17 -17 -1 -39 -5 -49 -9 -11 -5 -23 -4 -30 3 -6 6 -18 11 -26
10 -11 0 -12 -2 -3 -6 6 -2 12 -15 12 -29 0 -18 -4 -22 -17 -18 -15 5 -16 4
-3 -5 8 -6 27 -8 43 -5 20 4 27 2 27 -10 0 -20 10 -20 37 -1 15 11 24 12 28 4
4 -6 18 -8 31 -5 14 4 24 2 24 -4 0 -5 16 -10 35 -10 19 0 35 5 35 10 0 6 4
10 10 10 5 0 7 -7 4 -15 -7 -18 13 -20 51 -5 17 7 24 7 20 0 -3 -6 -1 -10 6
-10 9 0 9 -3 0 -14 -10 -12 -8 -13 8 -9 12 3 21 10 21 15 0 5 6 5 15 0 9 -4
40 -5 71 -2 30 3 58 2 60 -2 3 -5 12 -4 20 3 11 9 17 9 29 -1 8 -6 19 -9 25
-5 5 3 10 1 10 -4 0 -6 9 -11 20 -11 11 0 20 -6 20 -12 0 -8 3 -9 8 -3 11 16
56 14 66 -2 7 -13 10 -13 17 -2 6 10 9 11 9 2 0 -7 9 -13 20 -13 30 0 24 -17
-11 -35 -29 -16 -31 -15 -36 4 -6 25 -1 25 -49 2 -21 -10 -65 -22 -96 -25 -51
-7 -58 -5 -68 13 -6 12 -19 21 -29 21 -11 0 -22 7 -25 16 -4 9 -13 14 -21 10
-8 -3 -15 0 -15 6 0 7 -4 7 -14 -1 -9 -7 -17 -8 -20 -3 -3 6 -20 7 -40 2 -19
-4 -37 -6 -40 -3 -2 3 -14 2 -27 -2 -17 -6 -19 -9 -8 -16 8 -5 9 -9 3 -9 -5 0
-15 5 -21 11 -13 13 -36 3 -28 -12 13 -20 -6 -49 -31 -49 -14 0 -34 -5 -45
-11 -14 -7 -24 -7 -33 0 -7 6 -16 8 -19 5 -11 -11 -97 -11 -97 0 0 6 -5 4 -10
-4 -9 -13 -10 -13 -10 0 0 13 -1 13 -10 0 -8 -13 -10 -12 -10 3 0 9 -4 17 -10
17 -5 0 -10 -6 -10 -14 0 -15 -35 -11 -57 6 -7 6 -19 5 -32 -1 -31 -17 -46
-14 -30 6 12 15 12 16 -5 10 -10 -4 -25 -2 -32 4 -11 9 -15 7 -20 -5 -3 -9
-10 -13 -15 -10 -5 3 -6 10 -3 16 5 7 -2 9 -20 4 -15 -4 -26 -2 -26 3 0 6 -7
8 -15 5 -8 -4 -15 -1 -15 6 0 7 -7 10 -15 7 -8 -4 -17 -2 -19 2 -3 5 -16 6
-30 4 -13 -3 -27 0 -30 6 -4 6 -12 11 -17 11 -6 0 -8 -4 -4 -9 3 -5 0 -13 -6
-17 -8 -5 -10 1 -7 17 3 18 0 25 -11 26 -9 0 -45 4 -81 7 -36 4 -87 8 -114 11
-26 2 -51 6 -54 9 -3 3 -11 1 -19 -5 -8 -7 -13 -8 -13 -1 0 15 -42 22 -58 9
-12 -9 -18 -7 -30 11 -17 26 -57 29 -66 6 -5 -13 -9 -14 -21 -4 -8 7 -15 8
-15 2 0 -13 -62 -25 -69 -13 -19 30 -104 2 -121 -39 -14 -33 0 -89 26 -111 9
-7 22 -25 30 -41 16 -31 59 -57 102 -62 16 -2 35 -6 41 -10 7 -5 33 -9 59 -11
32 -1 77 -17 142 -50 169 -85 192 -95 210 -95 11 0 22 -4 25 -10 10 -16 107
-59 121 -53 8 3 14 0 14 -6 0 -6 7 -11 15 -11 8 0 15 -7 15 -15 0 -9 9 -15 25
-15 13 0 28 -7 33 -16 5 -8 15 -16 24 -17 8 -2 26 -10 39 -19 13 -8 40 -19 58
-23 19 -4 50 -16 68 -26 18 -10 33 -16 33 -13 0 4 6 1 14 -5 8 -6 18 -11 22
-10 18 3 54 -14 48 -22 -3 -5 6 -9 20 -9 14 0 26 -5 26 -11 0 -6 7 -8 15 -5 9
3 18 -1 21 -8 3 -8 14 -12 26 -8 17 4 20 2 15 -13 -6 -14 -3 -16 13 -12 13 3
20 0 20 -9 0 -9 8 -14 18 -12 11 2 16 -3 14 -15 -4 -22 17 -22 34 1 12 16 12
16 11 -3 -2 -14 4 -19 18 -18 11 1 24 -5 28 -13 4 -8 15 -14 22 -14 8 0 15 -7
15 -15 0 -18 16 -20 23 -2 3 6 5 -5 4 -26 l-2 -37 -45 6 c-65 8 -70 11 -71 36
l-2 23 -4 -23 c-3 -17 -9 -21 -23 -17 -14 4 -20 0 -22 -17 -4 -22 -5 -22 -16
4 -8 19 -16 26 -27 22 -8 -3 -15 -1 -15 5 0 18 -22 12 -27 -7 -2 -10 -18 -27
-35 -37 -17 -10 -28 -13 -24 -6 4 6 2 11 -3 11 -6 0 -11 5 -11 12 0 9 3 9 12
0 19 -19 28 -14 28 12 0 16 -7 27 -21 31 -27 9 -38 -2 -41 -42 -1 -20 -6 -29
-15 -26 -8 3 -13 -2 -13 -13 -1 -21 -27 -60 -35 -53 -2 3 -1 19 4 35 14 50 -5
123 -22 82 -3 -7 -6 0 -6 17 -1 21 -4 26 -12 18 -14 -14 -39 -6 -39 13 0 8 -5
14 -11 14 -5 0 -7 -4 -4 -10 3 -5 1 -11 -4 -11 -26 -3 -30 -4 -37 -11 -4 -4
-1 -14 6 -23 10 -12 10 -18 0 -30 -7 -8 -9 -22 -6 -31 6 -15 9 -14 31 6 14 13
25 29 25 37 0 20 13 15 32 -11 16 -22 16 -24 -7 -34 -16 -8 -23 -17 -19 -27 3
-8 2 -15 -4 -15 -5 0 -13 10 -17 22 -6 20 -8 20 -12 5 -2 -9 -8 -15 -13 -12
-5 3 -23 -8 -41 -25 -24 -21 -35 -26 -41 -17 -5 7 -8 1 -8 -16 0 -16 4 -26 10
-22 6 3 10 -1 10 -10 0 -9 -4 -13 -10 -10 -9 6 -14 -8 -11 -27 0 -5 -9 -8 -22
-9 -17 -1 -15 -3 11 -12 25 -8 32 -15 29 -28 -3 -10 1 -20 9 -23 8 -3 14 -17
14 -31 0 -14 5 -25 10 -25 18 0 10 -18 -10 -23 -11 -3 -20 -1 -20 4 0 5 -18
12 -40 15 -22 4 -45 12 -51 20 -6 7 -17 10 -24 8 -8 -3 -31 6 -52 20 -21 14
-48 26 -60 26 -13 0 -23 6 -23 14 0 16 -52 28 -61 14 -4 -7 -10 -5 -15 4 -8
13 -58 28 -106 31 -10 1 -18 7 -18 13 0 7 -15 15 -32 19 -40 8 -117 33 -132
43 -6 3 -18 7 -26 9 -8 1 -16 7 -18 13 -2 5 -8 7 -13 4 -6 -3 -15 -1 -22 4 -7
6 -30 13 -52 17 -22 4 -45 12 -52 17 -21 17 -87 48 -103 49 -10 0 -9 3 5 9 17
7 17 9 3 9 -10 1 -19 0 -21 -1 -2 -2 -16 5 -31 16 -16 10 -25 12 -21 5 5 -7
-13 -1 -40 14 -26 15 -55 27 -65 27 -10 0 -21 7 -24 16 -3 9 -13 14 -21 10 -8
-3 -17 -1 -20 4 -4 6 -15 10 -26 10 -10 0 -19 5 -19 11 0 5 -4 8 -10 4 -5 -3
-17 -2 -27 4 -39 19 -119 52 -134 54 -9 2 -28 10 -42 20 -15 9 -31 17 -36 17
-6 0 -25 9 -43 20 -18 11 -41 20 -50 20 -10 0 -17 6 -15 13 1 6 -5 13 -13 13
-28 3 -60 16 -60 25 0 5 -11 9 -24 9 -14 0 -28 4 -31 10 -3 5 -14 10 -25 10
-10 0 -21 7 -24 16 -4 9 -9 14 -13 11 -3 -4 -18 2 -33 13 -16 11 -35 20 -44
20 -9 0 -16 3 -16 8 0 4 -15 13 -32 21 -18 8 -55 24 -83 36 -73 32 -143 60
-200 80 -27 10 -84 30 -125 45 -41 15 -95 31 -119 35 -24 4 -53 16 -64 26 -11
10 -23 16 -27 14 -4 -3 -13 2 -20 10 -7 8 -17 12 -22 9 -6 -4 -14 -1 -18 6 -5
8 -19 15 -31 17 -13 2 -26 7 -29 11 -3 4 -14 9 -25 10 -10 2 -32 15 -48 28
-16 13 -35 24 -43 24 -9 0 -12 5 -9 10 3 6 -1 10 -9 10 -9 0 -16 5 -16 10 0 6
-9 10 -20 10 -11 0 -20 5 -20 10 0 6 -7 10 -15 10 -8 0 -15 5 -15 10 0 6 -6
10 -12 8 -7 -1 -48 15 -90 35 -43 20 -80 37 -82 37 -3 0 -22 12 -43 26 -21 14
-54 32 -73 40 -19 9 -43 20 -53 25 -10 5 -22 7 -27 4 -6 -4 -10 -1 -10 4 0 15
-27 14 -34 -1 -3 -7 -4 -4 -3 7 1 12 -4 20 -13 20 -8 0 -21 7 -28 15 -10 13
-11 13 -6 -3 6 -16 3 -16 -32 4 -22 12 -41 24 -44 28 -3 3 -22 15 -42 26 -21
11 -38 24 -38 30 0 5 -5 3 -10 -5 -8 -12 -10 -12 -10 -1 0 8 -7 11 -19 8 -21
-5 -67 19 -101 53 -11 11 -28 20 -38 20 -36 0 -200 74 -297 134 -66 41 -300
155 -330 162 -39 8 -195 62 -260 89 -16 7 -48 18 -70 25 -22 7 -54 19 -72 27
-17 7 -42 13 -55 13 -12 1 -34 7 -48 15 -14 8 -37 14 -52 15 -16 0 -28 5 -28
10 0 6 -10 10 -22 10 -12 0 -42 9 -67 21 -25 11 -55 24 -66 29 -71 28 -136 66
-170 99 -56 53 -126 102 -136 95 -5 -3 -12 2 -15 10 -3 9 -13 16 -20 16 -8 0
-17 7 -20 15 -4 8 -13 15 -20 15 -23 0 -64 29 -119 83 -27 28 -69 65 -92 84
-23 19 -46 47 -52 63 -8 26 -7 32 12 45 20 14 20 15 2 15 -18 0 -18 0 1 15 18
13 18 14 1 15 -10 0 -16 4 -12 9 3 6 -4 15 -15 21 l-21 11 23 20 23 20 -24 -7
c-16 -4 -21 -3 -17 5 4 6 1 11 -6 11 -9 0 -8 4 2 14 16 14 114 29 124 18 9 -8
33 -13 76 -15 19 -1 40 -5 47 -10 17 -11 45 3 39 20 -3 8 -6 26 -6 40 0 22 -4
25 -25 21 -39 -8 -31 28 13 51 24 13 30 49 11 68 -17 17 -4 29 46 43 25 7 48
16 51 21 2 4 11 6 20 2 8 -3 14 -2 12 3 -1 5 5 29 15 53 14 34 72 99 245 271
125 124 247 240 272 256 105 70 330 147 495 170 87 12 169 32 295 74 118 39
226 67 330 85 224 39 332 55 341 49 12 -7 27 61 35 160 3 48 9 84 13 80 3 -5
13 -10 21 -12 8 -2 22 -10 31 -18 15 -13 17 -11 24 18 4 18 7 36 6 40 -1 8 29
-1 46 -14 18 -14 22 18 14 102 -6 65 -9 72 -18 50 -6 -15 -7 -32 -2 -42 6 -11
5 -20 -4 -25 -8 -4 -16 -15 -19 -23 -3 -10 -6 -8 -10 8 -4 12 -2 20 3 16 15
-9 10 6 -7 24 -11 10 -13 17 -5 20 16 5 14 22 -4 22 -8 0 -15 9 -15 20 0 11
-5 20 -11 20 -8 0 -8 4 0 14 9 11 9 20 2 35 -6 11 -8 27 -5 35 3 9 -1 23 -10
32 -9 8 -13 20 -10 26 4 6 0 17 -10 23 -9 7 -14 19 -10 29 7 18 39 22 49 6 3
-5 15 -10 26 -10 11 0 76 -38 145 -85 123 -83 137 -89 179 -86 11 1 34 2 52 4
18 1 39 11 47 22 9 11 16 14 16 8 0 -7 5 -13 10 -13 6 0 8 10 4 24 -4 16 -1
25 11 30 9 3 14 10 10 15 -3 6 -12 8 -20 4 -8 -3 -15 0 -15 6 0 6 8 11 18 11
16 1 15 2 -2 15 -18 14 -18 15 8 24 14 6 26 15 26 21 0 6 5 8 10 5 6 -3 10 4
10 15 0 16 5 20 15 16 8 -3 15 0 15 6 0 13 59 68 72 68 9 0 102 66 129 92 53
49 158 103 254 129 53 14 108 37 177 73 39 20 75 32 87 29 13 -3 27 4 42 21
13 15 29 24 35 22 7 -3 14 2 16 11 4 23 88 31 88 9 0 -9 4 -16 10 -16 5 0 9 8
8 18 -4 53 3 82 20 82 9 0 25 11 35 24 10 12 37 37 61 54 36 26 45 29 50 16 3
-8 11 -12 16 -9 8 5 7 11 -1 21 -9 11 -8 14 5 14 10 0 16 -9 16 -24z m-230
-140 c0 -3 -4 -8 -10 -11 -5 -3 -10 -1 -10 4 0 6 5 11 10 11 6 0 10 -2 10 -4z
m340 -215 c5 -11 7 -22 2 -25 -4 -2 -12 7 -19 20 -13 28 2 33 17 5z m-4046
-1624 c14 -19 29 -48 32 -65 5 -26 11 -32 33 -32 29 0 125 -42 135 -59 9 -14
1 -14 -32 2 -40 18 -142 9 -142 -13 0 -4 -11 -11 -25 -14 -14 -4 -25 -11 -25
-17 0 -6 -27 -37 -59 -70 -42 -42 -67 -59 -85 -59 -14 0 -26 -4 -26 -10 0 -5
-6 -10 -14 -10 -8 0 -28 -13 -44 -30 -17 -16 -37 -30 -46 -30 -9 0 -23 -11
-32 -25 -9 -14 -20 -23 -24 -20 -5 3 -11 1 -15 -5 -3 -5 -15 -10 -26 -10 -11
0 -22 -7 -25 -15 -4 -8 -14 -15 -24 -15 -11 0 -22 -4 -25 -10 -8 -13 -52 -13
-60 0 -13 21 -14 56 -3 87 7 18 15 33 19 33 14 0 19 34 7 42 -9 5 -8 8 6 8 15
0 16 3 6 15 -6 8 -9 19 -5 25 3 5 1 10 -4 10 -6 0 -11 5 -11 10 0 6 7 10 16
10 11 0 14 5 10 16 -4 9 -1 23 5 30 9 11 7 14 -10 14 -11 0 -21 5 -21 10 0 6
10 10 23 10 20 1 20 2 5 11 -10 5 -18 17 -18 25 0 8 -13 23 -30 32 -38 21 -38
35 0 62 41 30 88 35 134 16 49 -21 95 -20 125 0 49 35 156 73 203 74 42 0 50
-4 72 -33z m-640 -415 c-8 -17 -17 -48 -20 -69 -5 -37 -5 -37 12 -18 16 20 16
20 10 -5 -3 -14 -6 -31 -6 -37 0 -7 -8 -13 -19 -13 -39 0 -32 77 13 147 26 39
31 37 10 -5z m312 -354 c5 -8 0 -9 -14 -6 -12 4 -22 3 -22 -2 0 -4 9 -10 20
-13 17 -4 19 -11 14 -50 -4 -28 -2 -53 7 -68 7 -14 12 -49 10 -84 -2 -63 15
-155 29 -155 5 0 8 -9 7 -20 -1 -11 -5 -20 -10 -20 -18 0 -47 21 -47 35 0 8
-4 15 -10 15 -16 0 -50 81 -52 122 -1 25 5 45 17 59 14 14 16 22 7 27 -8 6 -8
14 3 34 15 31 13 100 -4 106 -9 3 -9 7 0 18 14 17 35 18 45 2z m-46 -79 c-5
-18 -12 -34 -16 -38 -4 -3 -4 2 -1 12 4 10 7 30 7 43 0 14 4 23 9 19 6 -3 6
-18 1 -36z m-179 18 c-6 -8 -9 -16 -7 -18 2 -2 6 -16 10 -31 5 -21 3 -28 -9
-28 -8 0 -15 5 -15 10 0 6 -5 10 -11 10 -6 0 -9 -7 -6 -15 4 -8 2 -17 -3 -20
-6 -4 -10 -1 -10 6 0 7 -15 -1 -32 -19 -18 -17 -36 -31 -40 -32 -5 0 -12 0
-16 0 -14 0 -7 -41 9 -52 11 -8 11 -9 -3 -5 -9 3 -22 -1 -28 -9 -12 -14 -50
-20 -50 -7 0 22 54 92 89 113 22 14 41 28 41 32 0 15 63 78 77 78 12 0 13 -3
4 -13z m390 -69 c7 -18 12 -39 12 -46 -1 -7 1 -11 4 -8 3 3 19 -13 35 -35 16
-22 50 -60 74 -84 25 -23 55 -60 66 -81 19 -36 37 -56 100 -109 32 -27 162
-115 222 -149 27 -16 76 -50 108 -76 69 -56 246 -146 394 -201 52 -19 123 -61
161 -94 7 -5 33 -26 59 -45 26 -19 92 -71 148 -116 56 -44 128 -98 161 -120
71 -48 313 -219 338 -239 9 -8 20 -15 23 -15 2 0 17 -8 32 -18 15 -11 56 -36
92 -57 69 -41 149 -97 243 -172 99 -79 270 -192 385 -257 42 -23 93 -52 112
-63 112 -65 243 -140 300 -171 36 -19 77 -43 92 -54 14 -10 31 -18 37 -18 6 0
11 -3 11 -8 0 -4 15 -13 33 -21 17 -8 45 -23 60 -34 15 -10 51 -31 80 -47 29
-15 68 -37 87 -49 19 -11 53 -30 75 -42 22 -12 75 -44 119 -72 44 -27 100 -61
125 -74 25 -14 51 -31 56 -37 6 -7 64 -41 130 -76 66 -35 129 -68 140 -74 11
-6 71 -42 133 -81 62 -38 132 -80 155 -93 23 -12 47 -29 53 -37 6 -8 14 -12
18 -8 3 4 13 -3 22 -15 8 -12 21 -22 28 -22 7 0 32 -13 54 -30 23 -16 46 -30
51 -30 5 0 11 -3 13 -7 4 -10 65 -53 74 -53 3 0 30 -14 59 -32 34 -20 56 -41
60 -56 5 -19 9 -22 18 -13 19 19 29 12 22 -16 -6 -27 -6 -27 13 -10 17 15 22
16 33 4 8 -7 21 -11 29 -9 8 3 3 -8 -13 -23 -15 -15 -25 -30 -23 -32 2 -2 16
8 31 22 14 15 29 24 33 20 4 -4 -1 -13 -12 -20 -11 -9 -16 -20 -12 -31 5 -12
2 -15 -9 -10 -9 3 -14 2 -11 -2 2 -4 1 -14 -5 -22 -6 -10 -9 -11 -9 -2 0 6 -4
12 -10 12 -16 0 -12 -40 5 -46 18 -7 21 -47 3 -42 -7 3 -14 15 -16 27 -5 34
-32 22 -59 -26 l-23 -41 30 -7 c36 -8 29 -27 -8 -23 -22 2 -26 -1 -24 -16 3
-15 -1 -18 -22 -14 -14 3 -26 1 -26 -3 0 -5 9 -9 20 -9 18 0 19 -3 10 -20 -11
-21 -8 -24 23 -21 20 3 23 -15 5 -22 -8 -3 -6 -6 5 -6 27 -1 20 -21 -9 -21
-16 0 -23 -4 -18 -12 4 -6 3 -8 -4 -4 -6 3 -14 1 -18 -5 -4 -8 -9 -7 -15 2 -6
10 -9 11 -9 2 0 -7 -7 -13 -16 -13 -14 0 -14 3 -4 15 7 8 19 15 27 15 8 0 13
7 11 18 -2 9 -10 17 -18 17 -8 0 -14 -6 -13 -13 2 -6 -4 -12 -13 -12 -8 0 -13
-4 -9 -9 3 -6 -4 -18 -15 -29 -26 -24 -70 -18 -70 9 0 10 -4 21 -10 24 -5 3
-10 1 -10 -4 0 -6 -9 -11 -19 -11 -10 0 -21 -7 -25 -15 -3 -8 -12 -15 -21 -15
-23 0 -18 -18 8 -23 19 -4 18 -4 -5 -6 -16 0 -28 -7 -29 -13 0 -10 -2 -10 -6
-1 -3 10 -9 8 -21 -4 -16 -16 -17 -14 -23 18 -4 19 -7 25 -8 12 -1 -17 -6 -20
-23 -15 -17 4 -20 2 -15 -11 5 -13 -1 -15 -29 -14 -19 2 -39 8 -43 15 -4 7
-15 10 -23 7 -9 -4 -18 0 -21 9 -8 20 -27 21 -27 2 0 -7 -7 -20 -17 -27 -15
-13 -16 -11 -10 13 6 21 4 26 -7 22 -8 -3 -21 5 -30 18 -9 13 -16 17 -16 9 0
-8 -3 -11 -7 -7 -5 4 -8 13 -8 19 0 7 -10 13 -21 15 -12 2 -26 14 -32 28 -7
13 -17 24 -24 23 -10 0 -10 -2 0 -6 17 -7 15 -23 -3 -23 -8 0 -15 -4 -15 -9 0
-5 -6 -12 -12 -14 -7 -2 -1 -3 15 -1 15 2 27 -1 27 -6 0 -5 7 -7 15 -4 8 4 15
1 15 -5 0 -12 -7 -13 -55 -13 -16 1 -22 -2 -12 -4 30 -9 19 -25 -15 -22 -20 2
-38 -3 -45 -12 -11 -13 -14 -13 -22 0 -8 12 -13 12 -23 2 -12 -12 -10 -13 14
-16 19 -2 21 -26 3 -26 -17 0 -17 -11 0 -51 4 -12 -6 -29 -35 -58 -23 -23 -43
-41 -46 -41 -2 0 -4 9 -4 19 0 12 -10 21 -27 26 -15 3 -33 15 -41 26 -13 19
-15 19 -33 3 -13 -12 -19 -13 -19 -4 0 8 -11 11 -35 8 -24 -3 -35 0 -35 9 0 7
-3 13 -8 13 -4 0 -12 10 -17 22 -6 13 -23 30 -40 38 -16 9 -41 22 -55 30 -14
8 -49 15 -79 16 -29 1 -58 7 -63 12 -6 6 -17 8 -26 5 -8 -4 -13 -2 -10 3 4 5
-14 18 -38 29 -24 11 -44 23 -44 27 0 5 -11 8 -25 8 -16 0 -25 6 -25 15 0 9
-6 15 -12 14 -29 -3 -40 2 -34 17 4 9 2 13 -5 8 -11 -6 -49 9 -79 31 -8 7 -34
17 -58 24 -24 7 -52 21 -63 32 -10 10 -23 19 -29 19 -5 0 -10 5 -10 11 0 5 -5
7 -10 4 -6 -4 -29 7 -52 24 -23 17 -48 31 -55 31 -7 0 -21 4 -31 9 -9 5 -35
17 -57 27 -22 11 -44 25 -48 32 -4 6 -18 12 -31 12 -12 0 -31 7 -42 15 -25 19
-104 20 -104 1 0 -8 -3 -22 -6 -30 -5 -12 -2 -15 10 -10 12 5 16 0 16 -17 0
-19 2 -21 10 -9 8 13 10 12 10 -4 0 -12 5 -16 15 -12 9 3 15 0 15 -10 0 -8 5
-12 10 -9 6 3 13 -1 16 -10 6 -14 31 -29 56 -34 4 -1 21 -9 37 -19 15 -9 50
-30 77 -47 27 -16 53 -35 57 -42 5 -7 12 -11 18 -8 5 4 9 1 9 -6 0 -7 3 -9 7
-6 3 4 17 0 30 -8 25 -17 102 -60 140 -79 13 -6 23 -14 23 -18 0 -5 8 -8 18
-8 9 0 30 -14 45 -30 16 -17 33 -28 38 -24 5 3 9 0 9 -6 0 -6 11 -15 25 -20
14 -5 25 -14 25 -20 0 -5 9 -10 20 -10 11 0 23 -6 26 -14 3 -8 12 -12 20 -9 8
3 14 0 14 -7 0 -17 28 -42 40 -35 5 3 15 -5 22 -19 6 -14 19 -26 30 -26 10 0
18 -4 18 -10 0 -5 4 -10 10 -10 5 0 26 -11 46 -25 20 -14 45 -25 55 -25 11 0
27 -9 36 -19 9 -11 20 -18 25 -15 4 3 8 -2 8 -11 0 -11 5 -15 15 -11 8 3 15 2
15 -2 0 -7 49 -31 76 -37 19 -5 94 -57 94 -66 0 -5 10 -9 23 -10 21 0 21 -1 2
-9 -20 -9 -7 -15 23 -11 6 1 12 -5 12 -13 0 -10 6 -13 15 -10 10 4 15 0 15
-16 0 -11 4 -19 10 -15 15 9 50 -18 45 -36 -3 -10 4 -20 19 -29 16 -8 22 -18
19 -28 -5 -11 -2 -13 6 -7 10 5 11 2 7 -13 -5 -15 -2 -21 11 -24 13 -3 8 -9
-22 -25 -37 -19 -41 -19 -55 -5 -8 9 -14 19 -12 22 2 2 -2 6 -8 8 -8 3 -10 -2
-6 -14 5 -17 0 -19 -52 -19 -31 0 -60 4 -63 9 -4 5 -15 5 -25 1 -11 -4 -39 -7
-64 -6 -25 1 -58 2 -75 1 -21 0 -39 9 -58 30 -16 16 -35 30 -42 30 -7 0 -15 7
-19 15 -7 19 -30 19 -46 0 -16 -19 -34 -20 -27 -1 4 9 0 12 -12 9 -11 -3 -30
6 -45 21 -15 13 -34 22 -42 19 -9 -3 -14 1 -14 12 0 9 -5 13 -10 10 -6 -4 -17
-1 -25 5 -8 7 -15 9 -15 6 0 -4 -9 -2 -20 4 -11 6 -19 15 -17 21 1 6 -12 19
-29 28 -38 20 -94 75 -94 90 0 6 -9 11 -19 11 -10 0 -21 7 -25 15 -3 8 -12 15
-21 15 -8 0 -15 6 -15 14 0 7 -12 16 -27 19 -23 5 -118 90 -203 181 -8 9 -37
38 -65 65 -46 45 -66 68 -109 126 -9 11 -16 16 -16 11 0 -5 -12 9 -26 30 -15
21 -33 43 -40 47 -8 4 -14 15 -14 22 0 8 -6 15 -14 15 -8 0 -17 11 -20 24 -3
14 -12 31 -20 38 -28 29 -47 79 -41 109 4 18 3 29 -4 29 -6 0 -11 -12 -12 -27
0 -28 0 -28 -11 -5 -7 14 -17 21 -26 17 -10 -4 -13 0 -9 14 4 15 -2 20 -29 26
-19 3 -34 10 -34 15 0 9 -49 60 -92 96 -7 6 -21 20 -30 30 -10 11 -26 28 -37
38 -11 10 -18 23 -15 27 3 5 0 9 -6 9 -11 0 -150 133 -150 143 0 3 -27 33 -60
67 -33 34 -60 67 -60 73 0 7 -16 23 -34 37 -19 14 -32 29 -29 33 6 10 -64 77
-80 77 -7 0 -21 14 -32 30 -11 16 -26 30 -32 30 -7 0 -13 9 -13 20 0 13 -7 20
-20 20 -13 0 -20 7 -20 20 0 11 -3 19 -8 18 -12 -5 -262 253 -262 270 0 8 -43
59 -120 142 -44 47 -107 114 -140 149 -33 36 -60 68 -60 73 0 4 -6 8 -14 8 -8
0 -16 4 -18 9 -1 5 -26 34 -54 63 -28 29 -59 67 -70 83 -10 17 -24 34 -31 38
-7 4 -13 12 -13 17 0 5 -13 24 -30 42 -16 18 -30 38 -30 45 0 7 -4 13 -9 13
-5 0 -35 38 -66 85 -32 47 -62 85 -67 85 -4 0 -8 5 -8 12 0 6 -11 26 -25 44
-14 18 -26 41 -28 51 -2 10 -8 27 -14 38 -6 11 -8 26 -5 34 3 10 -2 11 -19 6
-13 -4 -21 -4 -16 0 4 5 0 16 -9 26 -9 10 -16 30 -16 44 0 14 -4 25 -9 25 -5
0 -9 11 -9 24 0 25 -30 44 -49 31 -16 -9 -22 12 -11 39 10 28 -3 37 -17 11 -7
-12 -15 -6 -41 27 -18 23 -32 48 -32 55 0 8 -4 12 -9 9 -10 -6 -31 37 -31 63
0 11 -7 22 -16 25 -9 4 -14 13 -10 22 3 8 2 13 -3 10 -4 -3 -14 7 -22 22 -7
15 -24 37 -36 48 -12 12 -19 25 -16 28 4 3 2 6 -4 6 -6 0 -13 12 -17 28 -6 30
-33 69 -41 60 -5 -5 52 -125 65 -138 3 -3 16 -25 29 -50 57 -110 83 -155 89
-160 4 -3 14 -18 22 -35 30 -60 119 -192 170 -249 29 -33 57 -73 62 -88 6 -15
14 -28 19 -28 5 0 9 -5 9 -11 0 -6 6 -16 13 -24 6 -7 31 -42 55 -77 123 -180
254 -363 315 -438 38 -47 75 -94 84 -105 29 -36 114 -128 238 -255 66 -69 136
-147 154 -175 19 -27 39 -54 45 -60 6 -5 21 -23 33 -38 48 -62 166 -190 320
-347 139 -142 294 -320 278 -320 -2 0 19 -24 48 -53 28 -30 72 -78 97 -108 25
-29 68 -78 95 -109 95 -106 140 -158 180 -206 22 -27 60 -71 85 -98 25 -28 50
-56 55 -62 44 -53 87 -100 125 -140 25 -26 45 -52 45 -58 0 -6 10 -12 21 -14
27 -4 87 -69 78 -84 -5 -7 -3 -8 5 -4 12 8 51 -19 51 -35 0 -4 -8 -10 -17 -13
-10 -3 -5 -4 11 -2 21 3 30 -1 33 -15 3 -11 14 -19 25 -19 12 0 18 -6 16 -16
-2 -10 5 -18 15 -20 10 -1 34 -17 52 -36 18 -18 45 -43 59 -56 21 -20 23 -26
13 -42 -6 -11 -18 -21 -27 -23 -21 -4 -71 12 -93 32 -11 9 -21 11 -25 5 -4 -5
-19 -10 -34 -9 -22 0 -28 5 -28 22 0 24 -16 40 -22 21 -3 -7 -7 -5 -11 6 -4
10 -3 15 3 11 15 -9 24 43 10 60 -7 8 -29 15 -49 15 -36 1 -36 1 -12 14 14 8
31 12 38 9 7 -3 13 0 13 6 0 6 -5 11 -11 11 -5 0 -7 5 -4 10 7 12 -25 13 -43
1 -8 -4 -14 -12 -14 -17 -3 -27 -12 -44 -24 -44 -19 0 -18 16 1 24 16 6 21 46
6 46 -5 0 -12 -9 -16 -19 -8 -25 -43 -33 -83 -19 -23 9 -31 17 -27 28 5 11 3
12 -5 4 -13 -13 -60 -6 -60 8 0 15 -27 38 -47 39 -10 0 -13 3 -5 6 6 2 12 9
12 14 0 13 -34 11 -48 -3 -6 -6 -15 -8 -19 -3 -5 4 -2 10 5 12 6 3 12 8 12 13
0 13 -38 18 -50 6 -8 -8 -13 -7 -20 4 -5 8 -6 18 -4 22 9 15 -7 30 -20 19 -9
-8 -19 -4 -34 14 -27 31 -27 35 -1 35 11 0 18 3 16 8 -4 6 -53 7 -136 3 -16
-1 -21 -5 -17 -16 4 -13 2 -13 -14 -5 -10 5 -25 10 -33 10 -17 0 -30 -27 -20
-43 4 -6 10 -2 14 11 9 25 29 30 29 8 0 -40 -31 -61 -56 -36 -6 6 -9 -7 -8
-35 0 -25 4 -48 8 -52 4 -5 6 1 4 11 -1 10 2 21 8 23 7 2 14 -16 18 -49 8 -63
31 -101 47 -78 7 11 8 6 3 -15 -7 -29 -7 -29 10 -12 11 10 16 26 13 37 -3 13
0 20 9 20 8 0 14 -9 14 -19 0 -11 3 -27 6 -35 5 -12 2 -15 -12 -9 -12 4 -15 3
-10 -5 4 -7 18 -12 32 -12 15 0 24 -6 24 -15 0 -9 7 -18 15 -21 19 -8 20 -24
1 -24 -8 0 -27 -5 -43 -11 -26 -10 -27 -12 -8 -19 11 -5 15 -9 10 -9 -6 -1
-11 -10 -12 -21 -2 -25 31 -27 54 -5 12 12 18 13 29 4 8 -6 14 -17 14 -23 0
-6 -6 -4 -13 5 -12 15 -14 15 -36 -2 -13 -11 -18 -19 -12 -19 6 0 11 -7 11
-15 0 -8 5 -15 11 -15 6 0 9 7 5 15 -4 11 2 15 21 15 21 0 23 -2 13 -15 -6 -8
-9 -18 -6 -24 8 -13 -22 -23 -48 -16 -17 5 -18 4 -6 -4 13 -9 13 -11 -2 -11
-10 0 -18 7 -18 15 0 8 -4 15 -10 15 -5 0 -10 -8 -10 -18 0 -16 -9 -19 -52
-20 -29 0 -58 3 -64 9 -8 7 -17 5 -27 -6 -9 -8 -32 -15 -52 -15 -32 0 -36 3
-30 18 17 39 18 72 1 72 -9 0 -16 4 -16 9 0 15 18 23 25 11 10 -16 25 -12 25
7 0 15 2 15 14 -2 12 -17 15 -18 30 -3 20 21 20 28 1 28 -8 0 -15 5 -15 11 0
6 9 9 19 6 29 -7 45 7 26 23 -8 7 -15 8 -15 2 0 -10 -46 -27 -67 -23 -6 1 -27
-8 -47 -20 -30 -17 -34 -24 -25 -35 7 -8 9 -18 5 -21 -8 -9 -26 16 -26 35 0 8
13 27 30 43 27 27 27 30 7 23 -12 -4 -25 -12 -29 -18 -4 -6 -10 9 -14 33 -7
41 -8 43 -21 25 -8 -10 -19 -18 -24 -17 -5 2 -9 -5 -9 -16 0 -10 -6 -24 -14
-30 -12 -10 -13 -8 -9 8 3 12 1 21 -6 21 -6 0 -11 7 -11 16 0 8 5 12 10 9 6
-3 10 0 10 8 0 8 7 17 15 21 27 10 16 23 -22 24 -26 1 -42 8 -52 22 -7 11 -20
20 -27 20 -9 0 -14 12 -14 35 0 24 -5 35 -15 35 -8 0 -15 -5 -15 -11 0 -6 -7
-8 -16 -5 -9 4 -23 1 -30 -5 -15 -13 -34 -4 -34 17 0 17 12 18 28 2 9 -9 12
-7 13 12 0 22 1 23 8 6 11 -27 19 -7 10 24 -4 14 -7 19 -8 13 -1 -7 -11 -12
-23 -12 -16 1 -18 3 -7 6 25 6 32 43 8 43 -10 0 -19 -4 -19 -10 0 -5 -10 -10
-22 -9 -13 0 -17 3 -10 6 23 9 12 23 -18 23 -31 0 -41 -14 -16 -23 9 -4 12
-14 9 -26 -7 -27 -19 -27 -27 1 -6 23 -7 23 -21 4 -8 -11 -15 -16 -15 -10 0 5
-12 10 -27 11 -61 4 -78 9 -81 25 -2 9 5 19 15 22 15 5 18 14 15 41 -2 19 -8
33 -12 30 -4 -2 -5 -16 -2 -30 4 -23 1 -25 -34 -26 -22 -1 -31 -3 -21 -6 23
-6 16 -28 -9 -29 -37 -3 -39 -5 -15 -15 29 -11 26 -14 -17 -22 -31 -6 -33 -5
-26 15 5 16 3 20 -8 15 -9 -3 -25 7 -39 24 -26 32 -39 37 -39 15 0 -19 -31
-29 -57 -19 -17 7 -19 12 -12 32 8 19 12 21 24 11 23 -19 28 -6 5 15 -18 16
-52 15 -49 -2 3 -10 -12 -46 -21 -53 -4 -3 -9 -24 -13 -47 -4 -32 -2 -43 8
-43 10 0 12 10 9 37 -4 29 -3 34 5 23 6 -8 11 -23 11 -32 0 -9 5 -28 12 -42 9
-20 14 -23 25 -15 10 9 13 3 13 -30 0 -26 -4 -40 -10 -36 -5 3 -10 16 -10 28
0 21 -1 21 -13 -3 -8 -14 -18 -24 -24 -23 -6 1 -13 -9 -16 -23 -4 -20 -1 -23
14 -19 20 7 23 -2 13 -29 -4 -11 -18 -16 -43 -15 -25 0 -31 3 -18 8 17 6 16 8
-7 21 -14 7 -26 20 -26 27 0 8 -13 26 -29 41 -16 15 -31 36 -34 47 -4 17 -5
16 -6 -5 l-2 -25 -15 28 c-8 15 -19 27 -25 27 -6 0 -7 5 -4 10 3 6 1 10 -6 10
-6 0 -9 8 -6 20 3 11 1 20 -4 20 -5 0 -9 10 -9 23 0 17 2 19 9 8 8 -12 12 -12
25 -2 16 14 18 61 3 61 -5 0 -7 6 -4 14 3 8 1 17 -6 20 -7 2 -4 5 6 5 9 1 17
8 17 17 0 14 -2 15 -17 3 -15 -13 -16 -12 -11 8 7 27 -6 30 -22 6 -9 -15 -10
-12 -6 16 5 29 4 32 -12 26 -9 -4 -26 -9 -37 -12 -15 -4 -17 -2 -6 5 17 12 6
32 -17 32 -15 1 -15 2 2 15 20 15 20 15 0 15 -12 0 -24 10 -30 29 -13 33 -63
50 -65 22 0 -14 -1 -14 -7 -1 -7 16 -35 20 -48 7 -4 -4 -3 -7 3 -7 12 0 25
-39 17 -52 -7 -11 -54 41 -55 61 -1 9 -1 24 0 34 1 9 -3 17 -8 17 -6 0 -11 6
-11 13 0 18 -24 67 -32 67 -5 0 -8 12 -8 28 -1 15 -9 45 -20 67 -17 37 -17 40
-2 46 14 5 13 7 -6 13 -23 8 -25 16 -8 57 5 11 1 19 -11 23 -10 4 -19 2 -21
-3 -5 -16 -22 -13 -22 4 0 8 -5 15 -11 15 -7 0 -9 10 -7 25 3 14 1 25 -5 25
-5 0 -7 9 -4 20 3 13 -1 24 -14 30 -20 11 -26 40 -9 40 6 0 10 5 10 10 0 6 -7
10 -16 10 -12 0 -15 8 -12 32 2 27 -1 34 -17 36 -22 3 -55 71 -61 126 -2 17
-11 36 -18 42 -10 7 -14 23 -11 50 2 21 1 33 -2 26 -4 -10 -9 -8 -19 6 -18 27
-73 176 -85 232 -10 46 -12 54 -22 80 -10 28 -84 275 -106 352 -11 43 -21 93
-21 113 0 19 -4 35 -10 35 -5 0 -10 13 -10 29 0 17 -5 33 -11 36 -6 4 -9 20
-7 36 2 18 -3 33 -12 39 -8 5 -12 12 -8 15 3 4 -4 37 -17 74 -12 37 -26 88
-30 112 -7 44 -21 97 -36 134 -4 11 -17 56 -28 100 -68 274 -88 380 -96 500
-2 33 -8 85 -15 115 -6 30 -16 100 -24 155 -7 55 -15 107 -18 115 -4 8 -6 22
-6 30 0 15 -8 157 -18 290 -6 93 -6 90 3 174 5 41 13 71 21 74 6 2 12 -3 12
-12 0 -9 4 -16 8 -16 4 0 6 32 4 70 -5 76 7 92 29 38z m-434 -84 c-3 -3 -12
-4 -19 -1 -8 3 -5 6 6 6 11 1 17 -2 13 -5z m119 -78 c-20 -32 -21 -50 0 -42
13 5 15 0 9 -36 -8 -48 -13 -60 -23 -54 -4 2 -8 -6 -9 -17 -1 -12 -4 -29 -6
-37 -2 -8 -8 -34 -12 -57 -7 -38 -12 -44 -51 -59 -25 -9 -47 -14 -51 -11 -3 4
17 28 45 54 40 38 52 56 56 86 3 26 1 37 -9 37 -7 0 -15 4 -17 9 -1 6 -16 12
-32 15 -22 4 -29 1 -33 -14 -3 -11 -12 -20 -20 -20 -8 0 -13 -6 -10 -12 2 -7
16 -13 31 -13 14 1 25 -4 23 -10 -2 -5 -18 -10 -35 -10 -18 0 -32 -3 -32 -6 0
-4 -7 -10 -16 -13 -8 -3 -12 -2 -9 4 3 6 -1 10 -9 10 -9 0 -16 3 -16 8 0 13
31 52 41 52 11 0 79 69 79 80 0 4 16 6 35 4 31 -2 36 1 56 42 12 25 24 43 26
40 3 -3 -2 -17 -11 -30z m-291 -35 c3 -5 1 -12 -5 -16 -5 -3 -10 1 -10 9 0 18
6 21 15 7z m345 -50 c0 -82 -11 -141 -27 -141 -10 0 -12 -7 -8 -22 4 -16 4
-19 -3 -9 -8 11 -12 10 -20 -5 -10 -18 -11 -18 -17 -2 -8 20 11 84 28 95 7 5
12 13 12 18 3 48 19 124 26 119 5 -3 9 -27 9 -53z m-288 -24 c-11 -19 -28 -33
-43 -35 -13 -2 -28 -10 -32 -18 -4 -8 -19 -14 -32 -14 -23 0 -45 -34 -31 -47
3 -4 6 1 6 11 0 10 5 14 11 10 7 -4 6 -12 -6 -23 -15 -15 -17 -15 -30 3 -12
16 -12 22 3 45 9 14 25 35 34 45 10 11 18 23 18 28 0 4 10 8 23 8 12 1 36 7
52 14 41 18 49 10 27 -27z m158 -49 c0 -5 -4 -8 -10 -8 -5 0 -10 10 -10 23 0
18 2 19 10 7 5 -8 10 -18 10 -22z m258 20 c11 4 14 1 10 -9 -3 -8 -2 -85 3
-172 7 -150 14 -211 60 -544 10 -77 16 -148 13 -157 -3 -8 2 -45 11 -82 9 -37
21 -88 25 -113 14 -76 41 -195 47 -211 3 -8 7 -28 9 -44 2 -16 8 -34 13 -40 5
-6 12 -29 16 -51 5 -22 10 -47 12 -55 2 -8 7 -46 10 -85 3 -38 12 -77 20 -86
7 -9 16 -25 18 -35 5 -21 20 -76 36 -131 6 -21 14 -56 19 -78 9 -43 69 -268
93 -350 8 -27 26 -93 40 -145 34 -124 116 -372 129 -387 6 -7 7 -13 3 -13 -4
0 -2 -6 4 -14 6 -8 11 -18 9 -22 -3 -14 13 -58 29 -76 10 -11 13 -27 9 -45 -4
-17 0 -44 9 -67 9 -21 15 -52 13 -69 -2 -21 1 -31 9 -30 7 2 11 -8 10 -24 -2
-21 4 -28 23 -34 14 -4 19 -7 11 -8 -10 -1 -11 -4 -2 -15 8 -10 9 -16 1 -21
-6 -3 -8 -11 -4 -16 4 -6 11 -6 20 2 9 7 14 8 14 1 0 -6 3 -18 6 -26 4 -12 2
-15 -9 -10 -17 6 -33 -11 -18 -20 5 -3 7 -15 4 -26 -3 -11 -1 -20 4 -20 6 0 9
-24 7 -55 -2 -34 1 -53 6 -50 6 4 10 -15 10 -44 0 -49 19 -75 21 -28 0 22 0
22 10 -2 6 -14 6 -27 1 -30 -5 -3 -12 -15 -16 -26 -4 -11 -15 -31 -26 -44 -16
-19 -25 -22 -47 -15 -16 4 -32 6 -37 5 -5 -1 -6 5 -2 14 3 9 2 13 -3 10 -5 -3
-12 -1 -16 5 -7 12 6 39 20 39 17 -1 15 15 -5 41 l-20 25 0 -25 c-1 -22 -3
-21 -20 14 -12 23 -17 48 -14 62 5 18 2 24 -10 24 -19 0 -20 5 -6 31 8 14 7
19 -2 19 -14 0 -48 55 -52 85 -2 10 -8 21 -14 23 -8 2 -9 9 -2 22 11 20 4 50
-11 50 -5 0 -9 9 -9 19 0 11 -6 26 -13 33 -27 28 -57 86 -51 101 3 9 0 24 -6
34 -11 17 -11 17 -6 0 4 -12 2 -17 -6 -14 -12 3 -14 16 -17 86 -1 15 -6 21
-14 18 -10 -4 -13 2 -9 19 2 13 -2 34 -10 46 -14 22 -21 46 -35 126 -3 17 -9
32 -14 32 -5 0 -9 7 -9 15 0 8 -4 15 -10 15 -5 0 -10 7 -10 15 0 9 -6 18 -14
21 -10 4 -15 21 -14 55 0 27 4 46 9 43 16 -9 10 24 -8 41 -12 12 -13 19 -5 24
16 10 -7 61 -28 61 -13 0 -13 1 0 10 12 8 12 12 3 18 -7 4 -14 20 -15 35 -1
15 -6 27 -10 27 -4 0 -8 13 -8 28 0 15 -4 32 -10 38 -5 5 -11 25 -13 44 -3 23
-11 37 -26 44 -14 6 -21 18 -21 37 0 15 -6 29 -12 31 -7 3 -14 16 -14 29 -4
59 -18 125 -30 140 -7 8 -15 36 -16 62 -2 26 -5 47 -8 47 -3 0 -7 23 -8 51 -1
28 -6 58 -11 68 -5 9 -12 50 -15 91 -8 91 -9 102 -20 118 -4 7 -5 19 -2 27 3
8 2 17 -3 19 -4 3 -9 31 -10 63 -1 32 -8 110 -16 173 -8 63 -17 151 -20 195
-3 44 -8 91 -11 105 -2 14 -9 117 -14 230 -6 113 -13 232 -15 265 -14 175 -2
364 23 373 5 1 18 9 28 17 11 7 23 10 28 5 5 -5 15 -6 24 -2z m-419 -84 c-7
-9 -20 -13 -30 -11 -13 3 -16 0 -12 -11 4 -9 2 -13 -4 -9 -6 4 -13 -3 -16 -14
-5 -17 -12 -21 -36 -17 -17 3 -31 1 -31 -4 0 -5 -9 -4 -20 2 -11 6 -20 16 -19
23 0 9 2 9 6 0 2 -7 12 -13 20 -13 8 0 13 6 10 13 -3 8 9 21 29 32 19 10 34
22 34 27 0 5 9 4 20 -2 16 -8 22 -7 32 10 11 17 14 17 21 4 5 -9 4 -21 -4 -30z
m-193 -59 c-4 -21 -13 -35 -21 -35 -19 0 -19 2 2 45 20 42 28 38 19 -10z m434
-24 c6 -11 6 -22 1 -25 -5 -3 -11 5 -13 19 -6 30 -2 32 12 6z m-376 -41 c6
-37 8 -40 31 -34 21 5 25 3 25 -14 0 -12 -5 -24 -11 -28 -7 -4 -7 -10 -1 -16
6 -6 19 -4 36 7 15 10 29 15 33 12 11 -12 -7 -37 -26 -37 -10 0 -21 -7 -25
-15 -3 -8 -12 -12 -19 -9 -9 3 -16 -3 -20 -15 -3 -12 -11 -21 -18 -21 -10 0
-10 3 -1 12 7 7 12 15 12 19 0 9 -59 -9 -76 -22 -6 -5 -14 -6 -17 -2 -4 3 -7
2 -7 -3 0 -5 -4 -15 -9 -23 -8 -12 -12 -12 -25 -2 -22 18 -20 47 4 71 29 29
35 25 12 -7 -19 -28 -19 -53 -1 -53 6 0 7 5 4 10 -4 6 5 24 19 41 14 17 26 36
27 42 1 7 2 31 3 54 2 38 19 73 36 73 4 0 10 -18 14 -40z m296 -26 c0 -31 -57
-104 -82 -104 -23 0 -23 6 2 37 11 14 20 35 20 46 0 11 3 17 7 14 3 -4 12 2
20 13 19 27 33 25 33 -6z m-117 -3 c2 -10 1 -25 -4 -32 -6 -10 -9 -4 -9 19 0
36 5 42 13 13z m247 -163 c0 -90 2 -190 6 -224 4 -37 2 -68 -4 -81 -7 -13 -8
-23 -1 -30 5 -5 12 -41 15 -79 2 -38 8 -114 13 -169 13 -136 24 -311 24 -362
0 -24 4 -40 9 -37 5 3 9 -13 8 -38 -1 -23 2 -63 5 -88 3 -25 7 -70 9 -100 7
-113 17 -210 26 -241 5 -17 7 -51 3 -75 -3 -23 -2 -51 2 -61 10 -23 11 -31 19
-123 4 -41 11 -79 17 -84 13 -14 11 -29 -2 -20 -7 4 -10 1 -7 -7 3 -8 11 -13
18 -11 8 2 10 -7 5 -29 -5 -21 -3 -34 5 -39 11 -7 32 -156 42 -302 2 -25 8
-38 18 -38 10 0 11 -3 3 -11 -8 -8 -9 -16 -1 -29 7 -10 8 -25 3 -36 -12 -30
-13 -55 0 -67 6 -7 10 -27 9 -44 -1 -24 3 -33 13 -33 12 0 13 -3 4 -14 -9 -10
-8 -15 4 -19 8 -4 12 -13 9 -21 -3 -8 -1 -23 4 -32 7 -12 6 -23 -1 -35 -8 -13
-8 -25 1 -44 15 -32 16 -58 2 -50 -22 14 1 -50 25 -67 6 -5 5 -8 -4 -8 -7 0
-11 -6 -8 -15 4 -8 1 -17 -4 -21 -7 -4 -7 -10 -1 -16 6 -6 8 -17 5 -24 -3 -8
1 -14 8 -14 10 0 10 -3 1 -12 -8 -8 -9 -15 -1 -25 9 -10 8 -13 -2 -13 -9 -1
-8 -4 4 -11 18 -10 18 -12 1 -30 -12 -13 -13 -19 -4 -19 7 0 10 -7 6 -16 -3
-8 -2 -12 4 -9 11 7 12 3 4 -18 -3 -9 -14 -12 -30 -9 -24 4 -28 -3 -27 -45 1
-7 -3 -13 -8 -13 -5 0 -9 -7 -9 -15 0 -8 5 -15 10 -15 6 0 10 5 10 11 0 6 7 9
15 6 8 -4 17 -2 20 3 4 6 -2 10 -12 10 -17 1 -17 1 0 11 20 11 37 4 37 -16 0
-7 7 -16 15 -19 12 -4 14 -16 10 -58 -6 -49 -25 -78 -50 -77 -5 0 -4 3 3 6 6
2 12 12 12 21 0 15 -2 15 -10 2 -8 -12 -12 -13 -19 -2 -4 8 -12 12 -17 10 -5
-1 -12 11 -15 27 -6 27 -7 25 -9 -15 -1 -25 -5 -36 -7 -25 -3 11 -13 31 -23
45 -9 14 -16 33 -15 42 2 10 -5 36 -16 57 -10 22 -19 47 -19 56 0 8 -5 15 -11
15 -5 0 -7 5 -4 11 4 5 -1 19 -11 30 -9 10 -14 22 -11 26 4 4 -1 16 -11 27
-19 21 -42 106 -42 152 0 13 -5 23 -12 22 -6 -2 -15 12 -19 31 -4 18 -12 43
-17 55 -6 11 -22 57 -37 101 -14 44 -33 92 -41 107 -7 14 -14 32 -14 40 0 7
-9 24 -19 37 -10 14 -17 30 -14 37 4 12 -2 29 -49 132 -11 23 -22 59 -25 80
-14 111 -30 474 -33 715 0 84 -17 50 -19 -40 -1 -55 -6 -90 -14 -95 -9 -6 -8
-10 3 -18 13 -9 13 -11 1 -19 -8 -5 -15 -24 -16 -43 -1 -18 -5 -41 -9 -51 -5
-11 -4 -23 2 -29 8 -8 8 -17 1 -30 -6 -11 -8 -25 -6 -33 3 -7 0 -18 -6 -24 -8
-8 -8 -11 0 -11 8 0 7 -9 -2 -27 -8 -16 -12 -36 -9 -45 3 -10 0 -18 -6 -18 -8
0 -11 -11 -8 -30 3 -17 2 -30 -2 -30 -8 0 -5 -68 2 -76 8 -7 -3 -54 -13 -54
-5 0 -7 -11 -3 -25 8 -32 -13 -34 -25 -2 -5 14 -4 25 3 30 7 4 8 10 1 15 -14
10 -12 62 4 71 9 6 6 10 -11 16 -19 6 -20 8 -5 12 21 5 23 33 2 33 -19 0 -19
9 0 34 9 12 11 24 6 35 -5 9 -8 40 -8 69 1 28 -2 52 -6 52 -5 0 -6 8 -3 18 3
9 8 78 12 152 3 74 7 160 9 190 1 30 8 56 14 58 6 2 8 9 4 15 -12 19 -14 49
-3 42 6 -4 10 20 10 64 0 49 4 71 12 71 8 0 9 3 2 10 -7 7 -8 34 -2 77 4 36 5
70 2 74 -3 5 2 12 11 15 10 4 13 13 10 25 -4 11 -2 19 3 19 5 0 9 8 8 18 -1
12 5 16 19 14 16 -2 17 -1 6 7 -12 8 -12 12 2 25 8 9 23 16 31 16 9 0 16 8 16
19 0 11 3 26 6 35 4 11 1 16 -11 16 -13 0 -15 3 -7 13 16 19 -12 77 -37 77
-21 0 -37 -31 -32 -63 2 -15 -3 -18 -26 -15 -22 2 -29 9 -31 31 -2 15 2 27 8
27 6 0 8 10 4 24 -3 14 0 29 10 39 18 18 21 34 6 39 -6 2 -6 16 -1 38 6 19 15
61 22 93 7 35 17 57 26 57 17 0 17 20 1 21 -10 0 -10 2 0 6 22 9 13 20 -13 15
-14 -2 -22 -8 -20 -12 3 -5 1 -11 -5 -15 -5 -3 -10 -18 -10 -32 0 -14 -8 -31
-17 -38 -14 -11 -15 -15 -4 -29 28 -34 -24 -130 -72 -132 -35 -2 -50 -7 -84
-32 -43 -30 -42 -16 3 36 35 42 61 56 50 27 -3 -8 -1 -15 4 -15 6 0 10 10 11
23 0 12 3 16 6 10 7 -19 23 -16 23 5 0 9 11 30 25 46 28 32 25 47 -7 38 -16
-4 -19 -2 -12 9 5 8 9 19 9 24 3 28 18 64 31 69 23 9 16 25 -8 19 -20 -4 -21
-3 -5 7 9 6 17 17 17 25 0 22 54 104 68 105 7 0 10 -5 7 -11 -4 -5 -8 -20 -10
-32 -1 -12 -6 -34 -10 -49 -5 -18 -3 -28 4 -28 6 0 11 6 11 13 0 7 9 23 19 34
12 13 18 29 14 42 -4 16 -1 21 13 21 14 0 15 3 6 12 -10 10 -7 15 10 26 13 7
15 11 6 8 -25 -7 -31 10 -15 36 8 13 20 39 26 58 6 20 21 40 33 45 13 6 24 19
26 30 3 16 1 18 -9 8 -17 -17 -29 -16 -29 1 0 24 79 96 105 96 8 0 15 7 15 15
0 9 6 12 15 9 8 -4 15 -1 15 5 0 6 2 11 6 11 3 0 5 -73 4 -162z m-553 110 c-3
-7 -5 -2 -5 12 0 14 2 19 5 13 2 -7 2 -19 0 -25z m-12 -18 c3 -6 -1 -13 -10
-16 -12 -5 -13 -10 -4 -20 9 -11 8 -15 -5 -20 -9 -3 -23 -3 -32 0 -13 5 -12
10 8 35 25 32 33 36 43 21z m325 -63 c0 -5 -4 -5 -10 -2 -5 3 -10 14 -10 23 0
15 2 15 10 2 5 -8 10 -19 10 -23z m5260 23 c0 -5 -9 -10 -20 -10 -11 0 -20 5
-20 10 0 6 9 10 20 10 11 0 20 -4 20 -10z m-5300 -30 c0 -5 -7 -10 -16 -10 -8
0 -12 5 -9 10 3 6 10 10 16 10 5 0 9 -4 9 -10z m-110 -42 c0 -35 -33 -78 -61
-78 -9 0 -22 -7 -29 -15 -7 -8 -18 -15 -24 -15 -6 0 -17 -9 -24 -20 -7 -11
-18 -20 -26 -20 -8 0 -17 -11 -20 -25 -6 -24 -26 -36 -26 -16 0 39 179 239
202 225 4 -3 8 -19 8 -36z m67 20 c-3 -8 -6 -5 -6 6 -1 11 2 17 5 13 3 -3 4
-12 1 -19z m6873 -8 c0 -5 -8 -10 -17 -10 -15 0 -16 2 -3 10 19 12 20 12 20 0z
m170 -12 c0 -13 -23 -5 -28 10 -2 7 2 10 12 6 9 -3 16 -11 16 -16z m-6916 -10
c-10 -32 -44 -79 -53 -73 -5 2 -16 -4 -26 -15 -10 -11 -24 -20 -31 -20 -7 0
-15 -9 -19 -19 -7 -22 -100 -121 -113 -121 -14 0 -22 12 -15 24 8 12 13 39 14
79 0 15 5 27 10 27 5 0 9 6 9 14 0 9 8 12 28 8 l27 -6 -25 -6 c-16 -4 -26 -14
-28 -29 -2 -15 0 -21 7 -17 6 4 11 2 11 -3 0 -6 7 -11 16 -11 9 0 14 6 12 12
-3 7 10 28 28 48 18 19 41 45 52 58 11 12 23 22 28 22 5 0 18 11 29 25 26 31
49 33 39 3z m-508 -16 c-17 -16 -18 -16 -5 5 7 12 15 20 18 17 3 -2 -3 -12
-13 -22z m7194 24 c0 -3 -4 -8 -10 -11 -5 -3 -10 -1 -10 4 0 6 5 11 10 11 6 0
10 -2 10 -4z m-4999 -26 c84 -10 124 -18 154 -30 79 -32 189 -89 240 -125 70
-49 79 -54 243 -135 68 -33 150 -78 182 -100 31 -21 79 -51 106 -66 27 -15 51
-30 54 -33 3 -3 32 -20 65 -37 133 -70 214 -114 287 -157 42 -25 98 -56 125
-68 50 -22 166 -77 338 -159 135 -64 164 -76 275 -112 52 -16 128 -41 168 -54
40 -13 78 -24 85 -24 12 0 298 -140 307 -151 8 -9 383 -189 393 -189 3 0 65
-29 139 -65 73 -35 183 -81 243 -101 61 -20 123 -43 139 -51 16 -8 52 -22 80
-30 28 -8 65 -21 81 -28 80 -34 139 -56 235 -89 165 -55 292 -105 310 -121 9
-8 21 -15 26 -15 5 0 22 -11 38 -25 17 -14 40 -28 53 -31 13 -4 23 -13 23 -21
0 -13 -10 -14 -54 -9 -42 6 -57 4 -70 -9 -12 -12 -25 -14 -53 -9 -21 4 -40 10
-43 13 -3 3 -31 15 -62 25 -32 11 -58 23 -58 27 0 4 -12 10 -27 13 -26 6 -90
36 -263 121 -36 17 -71 30 -78 27 -7 -2 -11 2 -10 8 2 7 -10 16 -26 21 -15 4
-37 16 -49 26 -14 12 -18 13 -12 3 6 -10 1 -9 -13 3 -11 11 -26 16 -31 12 -6
-3 -11 -1 -11 4 0 6 -9 11 -19 11 -28 0 -52 11 -46 21 3 5 -7 11 -22 15 -15 3
-33 13 -40 21 -7 9 -13 11 -18 4 -9 -16 -35 -13 -35 4 0 8 -4 15 -10 15 -16 0
-12 -19 9 -41 11 -12 24 -18 30 -15 5 4 13 0 18 -7 12 -20 58 -48 66 -40 4 3
7 -1 7 -10 0 -10 8 -17 20 -17 11 0 35 -9 55 -20 20 -11 42 -20 50 -20 8 0 19
-8 24 -17 8 -14 11 -15 11 -3 1 12 3 12 14 -2 7 -10 24 -22 37 -28 32 -13 62
-33 71 -45 4 -5 10 -7 13 -3 6 6 60 -25 92 -52 7 -5 18 -10 26 -10 17 0 93
-36 129 -61 20 -14 28 -16 31 -7 3 7 6 3 6 -9 1 -25 16 -31 24 -10 3 6 6 2 6
-10 1 -12 7 -24 14 -26 9 -4 8 -8 -3 -16 -9 -6 -18 -7 -24 -1 -19 19 -29 10
-11 -10 24 -26 5 -26 -23 0 -20 19 -22 19 -23 3 0 -14 -3 -12 -10 6 -7 18 -12
21 -23 12 -15 -13 -26 -5 -26 21 0 12 -7 18 -22 17 -17 -1 -19 -2 -5 -6 9 -2
17 -9 17 -14 0 -16 -40 -10 -56 10 -10 11 -24 16 -36 13 -11 -3 -24 3 -32 13
-7 10 -24 17 -38 17 -34 0 -46 35 -14 41 11 2 1 5 -24 5 -34 0 -40 -2 -25 -8
16 -7 17 -9 3 -9 -9 -1 -23 -4 -31 -7 -9 -3 -23 8 -37 31 -20 32 -23 34 -34
19 -10 -13 -17 -14 -34 -5 -18 10 -22 9 -22 -4 0 -21 -16 -19 -40 5 -11 11
-26 17 -35 14 -10 -4 -15 0 -15 10 0 19 -16 21 -23 4 -3 -7 -6 -3 -6 9 -1 31
-18 37 -48 18 -21 -14 -27 -15 -34 -4 -5 8 -9 17 -9 21 0 3 -14 11 -30 17 -18
6 -28 6 -25 1 11 -18 -12 -10 -30 10 -10 11 -26 18 -35 15 -10 -3 -28 6 -46
25 -16 16 -38 30 -50 30 -11 0 -55 18 -98 40 -42 22 -86 40 -97 40 -11 0 -17
5 -14 10 3 6 -5 14 -20 20 -14 5 -28 17 -31 25 -4 8 -11 15 -18 15 -6 0 -19
14 -29 31 -19 34 -37 34 -52 1 -10 -23 -25 -30 -25 -11 0 8 -5 8 -15 -1 -8 -7
-15 -8 -15 -3 0 11 -81 53 -102 53 -9 0 -21 7 -28 15 -7 9 -15 13 -18 10 -3
-2 -16 7 -29 21 -13 15 -27 24 -30 21 -4 -5 -59 18 -103 43 -37 21 -117 59
-140 65 -14 5 -31 16 -38 26 -7 10 -19 16 -26 13 -12 -5 -32 4 -102 45 -11 6
-32 16 -49 23 -16 6 -32 12 -35 14 -3 1 -15 5 -27 9 -13 4 -23 11 -23 15 0 4
-18 15 -40 24 -22 9 -40 20 -40 26 0 5 -5 10 -10 10 -17 0 -205 91 -208 101
-2 5 -10 9 -18 9 -8 0 -17 7 -20 15 -4 8 -10 12 -15 9 -5 -3 -9 1 -9 9 0 17
-21 27 -56 27 -13 0 -24 5 -24 10 0 6 -11 10 -25 10 -26 0 -65 27 -65 46 0 12
-64 34 -97 34 -11 0 -26 7 -33 15 -7 8 -16 13 -20 10 -5 -3 -12 0 -15 5 -9 14
-56 34 -72 31 -7 -1 -13 3 -13 9 0 5 -6 10 -13 10 -8 0 -22 9 -32 20 -10 11
-22 20 -26 20 -9 0 -106 45 -129 60 -8 5 -50 26 -92 46 -43 20 -76 40 -73 44
2 3 -2 7 -10 7 -12 0 -152 78 -165 93 -3 3 -18 12 -35 20 -16 8 -36 20 -42 27
-7 6 -37 25 -65 43 -75 44 -85 51 -125 88 -19 17 -41 32 -49 32 -8 0 -14 7
-14 15 0 8 -7 15 -15 15 -14 0 -118 70 -155 104 -8 7 -26 19 -40 26 -14 7 -39
27 -56 44 -18 17 -66 56 -108 86 -42 30 -76 58 -76 62 0 3 -8 9 -17 12 -18 5
14 2 148 -14z m5129 10 c0 -5 -4 -10 -10 -10 -5 0 -10 5 -10 10 0 6 5 10 10
10 6 0 10 -4 10 -10z m-7280 -190 c0 -5 -5 -10 -11 -10 -5 0 -7 5 -4 10 3 6 8
10 11 10 2 0 4 -4 4 -10z m-20 -40 c0 -5 -4 -10 -10 -10 -5 0 -10 5 -10 10 0
6 5 10 10 10 6 0 10 -4 10 -10z m30 -15 c0 -10 -9 -15 -27 -14 -24 2 -25 2 -5
6 12 2 22 9 22 14 0 5 2 9 5 9 3 0 5 -7 5 -15z m189 -34 c-5 -15 -9 -34 -7
-41 2 -7 -2 -15 -9 -17 -17 -6 -27 41 -13 66 6 12 17 21 25 21 11 0 12 -6 4
-29z m-211 -26 c-3 -3 -9 2 -12 12 -6 14 -5 15 5 6 7 -7 10 -15 7 -18z m-8
-30 c0 -20 -27 -62 -45 -69 -9 -3 -7 9 8 39 23 45 37 57 37 30z m7410 -5 c0
-5 -4 -10 -10 -10 -5 0 -10 -8 -11 -17 0 -11 -2 -13 -6 -5 -3 7 -2 19 1 27 6
17 26 20 26 5z m-7233 -32 c-3 -7 -5 -2 -5 12 0 14 2 19 5 13 2 -7 2 -19 0
-25z m6983 -93 c0 -8 -4 -15 -10 -15 -5 0 -7 7 -4 15 4 8 8 15 10 15 2 0 4 -7
4 -15z m57 -1 c-3 -3 -12 -4 -19 -1 -8 3 -5 6 6 6 11 1 17 -2 13 -5z m-7164
-41 c11 -10 -13 -33 -34 -33 -24 0 -25 16 -1 29 20 12 27 13 35 4z m60 -99
c-5 -30 -4 -32 23 -30 16 1 35 5 42 10 7 4 16 6 19 3 9 -10 -8 -27 -26 -27 -9
0 -27 -9 -39 -21 -19 -17 -30 -19 -66 -14 -47 7 -51 19 -18 58 8 9 11 17 7 17
-5 0 4 14 20 30 33 34 46 25 38 -26z m6934 50 c-3 -3 -12 -4 -19 -1 -8 3 -5 6
6 6 11 1 17 -2 13 -5z m-777 -64 c0 -5 -4 -10 -10 -10 -5 0 -10 5 -10 10 0 6
5 10 10 10 6 0 10 -4 10 -10z m139 -7 c9 9 11 6 9 -12 -2 -19 2 -24 24 -26 57
-7 67 -14 63 -45 -2 -17 1 -33 7 -36 7 -5 9 2 4 20 -4 18 -3 25 3 21 7 -3 8 0
5 9 -8 21 10 20 27 -1 11 -13 11 -17 2 -20 -7 -3 -13 -11 -13 -18 0 -10 9 -13
30 -10 20 2 30 -1 30 -10 0 -14 45 -29 60 -20 6 4 10 1 10 -4 0 -6 13 -11 30
-11 19 0 38 -9 55 -27 20 -22 25 -24 25 -10 0 9 5 17 11 17 7 0 9 -12 5 -34
-6 -32 -5 -34 16 -28 20 5 21 3 10 -10 -16 -20 -49 -12 -57 13 -4 10 -11 19
-16 19 -6 0 -7 -4 -4 -10 3 -5 1 -10 -4 -10 -6 0 -11 14 -11 30 0 40 -18 38
-22 -2 -2 -20 -8 -32 -15 -30 -7 1 -13 -5 -13 -13 0 -23 -47 -19 -55 5 -3 11
-10 20 -15 20 -5 0 -17 12 -25 28 -9 15 -14 19 -11 10 4 -14 0 -18 -18 -18
-15 0 -22 6 -22 18 1 9 -3 17 -9 17 -5 0 -10 -8 -9 -17 1 -29 -14 -20 -21 12
-4 17 -11 30 -17 30 -6 0 -8 -7 -4 -15 8 -23 -6 -18 -34 12 -21 21 -26 23 -28
10 -4 -21 -22 -23 -22 -3 0 19 21 26 43 14 11 -6 17 -5 17 2 0 6 -7 13 -15 16
-8 4 -15 14 -15 24 0 11 -4 22 -10 25 -5 3 -10 -3 -10 -14 0 -12 -4 -21 -10
-21 -5 0 -10 9 -10 20 0 18 -5 20 -32 17 -18 -2 -25 -2 -15 0 9 2 17 9 17 15
0 5 -6 8 -14 5 -12 -5 -25 18 -26 46 0 16 20 6 21 -10 0 -13 3 -12 10 6 9 22
11 22 33 8 18 -12 26 -13 35 -4z m-109 -17 c0 -3 -4 -8 -10 -11 -5 -3 -10 -1
-10 4 0 6 5 11 10 11 6 0 10 -2 10 -4z m260 -26 c9 -16 8 -18 -5 -14 -8 4 -15
12 -15 20 0 20 7 17 20 -6z m-6259 -72 c-4 -12 -13 -24 -20 -26 -9 -3 -9 2 0
22 15 32 32 35 20 4z m76 16 c-3 -3 -12 -4 -19 -1 -8 3 -5 6 6 6 11 1 17 -2
13 -5z m-357 -34 c8 -5 11 -10 5 -10 -5 0 -17 5 -25 10 -8 5 -10 10 -5 10 6 0
17 -5 25 -10z m250 -50 c0 -5 -5 -10 -11 -10 -5 0 -7 5 -4 10 3 6 8 10 11 10
2 0 4 -4 4 -10z m110 -40 c0 -5 -4 -10 -10 -10 -5 0 -10 5 -10 10 0 6 5 10 10
10 6 0 10 -4 10 -10z m-130 -90 c0 -5 -6 -10 -13 -10 -8 0 -20 -11 -27 -25 -8
-15 -21 -23 -34 -22 -15 1 -21 -4 -21 -18 0 -30 -10 -40 -54 -55 -22 -7 -50
-22 -61 -32 -13 -12 -20 -14 -20 -6 0 16 146 157 175 168 28 12 55 12 55 0z
m7550 -115 c0 -8 -7 -15 -16 -15 -14 0 -14 3 -4 15 7 8 14 15 16 15 2 0 4 -7
4 -15z m-7500 -110 c0 -33 -4 -45 -15 -45 -8 0 -15 -4 -15 -10 0 -5 9 -10 20
-10 18 0 21 -17 10 -50 -1 -3 -2 -24 -2 -47 -1 -31 -4 -39 -12 -30 -13 13 -15
28 -17 122 -1 55 13 115 26 115 3 0 5 -20 5 -45z m-60 -58 c0 -7 -9 -18 -20
-25 -16 -10 -20 -10 -20 1 0 14 20 37 32 37 4 0 8 -6 8 -13z m6357 -149 c-3
-8 -6 -5 -6 6 -1 11 2 17 5 13 3 -3 4 -12 1 -19z m183 -68 c0 -5 -5 -10 -11
-10 -5 0 -7 5 -4 10 3 6 8 10 11 10 2 0 4 -4 4 -10z m-20 -55 c-9 -11 -16 -13
-23 -6 -7 7 -6 15 3 26 9 11 16 13 23 6 7 -7 6 -15 -3 -26z m790 1 c0 -7 3 -6
8 2 8 12 42 7 42 -7 0 -4 28 -8 63 -8 34 -1 107 -12 162 -26 55 -14 134 -33
175 -42 41 -9 100 -25 130 -35 30 -10 125 -41 210 -69 158 -51 282 -95 301
-107 15 -9 -28 -36 -58 -36 -14 0 -48 7 -77 15 -28 9 -79 24 -114 33 -35 10
-65 21 -68 26 -3 5 -14 6 -24 3 -10 -3 -21 -1 -25 5 -3 5 -17 10 -29 10 -13 0
-29 7 -36 15 -7 9 -19 14 -26 11 -8 -3 -28 1 -46 8 -18 8 -37 15 -43 16 -5 1
-21 7 -34 12 -14 5 -30 7 -38 4 -7 -3 -13 -1 -13 5 0 6 -4 8 -9 4 -5 -3 -12
-1 -16 5 -3 5 -18 7 -31 4 -19 -5 -29 -1 -41 16 -12 17 -22 21 -44 16 -16 -3
-29 -2 -29 2 0 12 -102 35 -150 33 -29 -1 -40 2 -31 8 10 6 10 10 1 16 -6 4
-9 13 -6 20 3 9 -5 13 -27 13 -18 0 -51 2 -74 5 -27 3 -43 0 -43 -6 0 -8 -4
-7 -11 0 -7 7 -9 18 -6 26 6 17 57 20 57 3z m-729 -19 c-10 -9 -11 -8 -5 6 3
10 9 15 12 12 3 -3 0 -11 -7 -18z m-191 3 c0 -5 -4 -10 -10 -10 -5 0 -10 5
-10 10 0 6 5 10 10 10 6 0 10 -4 10 -10z m94 -16 c9 -24 7 -28 -9 -14 -17 14
-20 30 -6 30 5 0 12 -7 15 -16z m-6534 -44 c0 -13 -11 -13 -30 0 -12 8 -11 10
8 10 12 0 22 -4 22 -10z m6510 -10 c0 -11 -4 -20 -10 -20 -5 0 -10 9 -10 20 0
11 5 20 10 20 6 0 10 -9 10 -20z m840 0 c0 -5 -4 -10 -10 -10 -5 0 -10 5 -10
10 0 6 5 10 10 10 6 0 10 -4 10 -10z m-1013 -47 c-3 -10 -5 -2 -5 17 0 19 2
27 5 18 2 -10 2 -26 0 -35z m230 -5 c-3 -8 -6 -5 -6 6 -1 11 2 17 5 13 3 -3 4
-12 1 -19z m-64 -105 c18 -6 57 -17 87 -23 70 -16 90 -26 90 -48 0 -15 2 -15
10 -2 7 10 12 12 18 4 12 -18 64 -41 110 -49 23 -4 42 -11 42 -16 0 -5 6 -9
14 -9 7 0 33 -9 57 -19 24 -11 48 -20 53 -20 5 1 12 -3 15 -8 6 -10 79 -33
116 -37 34 -4 99 -26 126 -44 83 -54 93 -62 177 -140 17 -17 32 -28 32 -26 0
6 51 -27 75 -49 11 -10 32 -26 48 -35 15 -9 27 -22 27 -29 0 -7 9 -13 20 -13
25 0 64 -37 47 -44 -7 -2 -4 -5 5 -5 9 -1 20 -6 24 -13 4 -7 3 -8 -4 -4 -7 4
-20 2 -29 -3 -12 -7 -14 -10 -4 -11 26 0 -10 -30 -38 -31 -24 0 -24 -1 -6 -10
19 -8 19 -9 1 -6 -27 3 -33 27 -7 27 27 0 27 16 1 23 -11 3 -20 0 -20 -6 0 -6
-3 -7 -7 -4 -3 4 0 19 8 34 11 21 11 27 1 31 -7 2 -20 11 -29 20 -9 10 -19 15
-22 14 -3 -2 -14 -8 -24 -14 -14 -7 -17 -16 -13 -34 4 -13 2 -24 -3 -24 -5 0
-11 10 -13 22 -4 25 -28 37 -28 14 0 -19 -11 -21 -28 -4 -9 9 -12 9 -12 -1 0
-9 -9 -11 -30 -6 -24 5 -30 3 -30 -10 0 -15 -2 -15 -15 -1 -9 8 -22 13 -30 10
-10 -4 -15 1 -15 16 0 12 -4 18 -11 15 -5 -4 -19 1 -29 10 -11 10 -43 19 -79
22 -34 3 -61 10 -61 14 0 12 -57 11 -64 0 -3 -5 -16 -7 -28 -4 -25 7 -48 -19
-48 -54 0 -42 -46 -71 -115 -73 -81 -2 -75 -3 -120 10 -44 12 -50 14 -112 25
-24 4 -48 14 -54 21 -6 8 -15 12 -19 9 -4 -3 -24 2 -45 10 -20 9 -58 17 -85
18 -26 1 -46 5 -43 10 2 4 -5 7 -16 7 -11 0 -23 5 -26 10 -4 6 -10 8 -14 5
-12 -7 -41 29 -33 40 13 18 58 16 136 -4 42 -11 80 -22 85 -25 31 -19 278 -73
331 -72 58 1 62 3 93 40 41 49 40 92 -4 121 -16 11 -29 24 -29 28 0 5 -12 21
-27 36 -16 15 -42 43 -59 62 -29 32 -94 77 -94 64 0 -3 -11 6 -25 20 -14 14
-32 25 -39 25 -8 0 -28 14 -46 30 -22 20 -39 29 -51 25 -13 -4 -19 -1 -19 9 0
9 -16 23 -36 31 -26 11 -35 19 -30 31 4 12 2 15 -9 10 -20 -7 -41 32 -26 47 6
6 12 20 12 32 1 13 3 15 6 4 2 -8 18 -20 36 -26z m-213 -333 c-19 -13 -30 -13
-30 0 0 6 10 10 23 10 18 0 19 -2 7 -10z m-6105 -10 c3 -5 -1 -10 -9 -10 -9 0
-16 5 -16 10 0 6 4 10 9 10 6 0 13 -4 16 -10z m5954 -30 c8 0 35 -22 83 -65
17 -16 33 -23 45 -19 17 5 16 4 -1 -10 -14 -11 -22 -13 -27 -5 -4 6 -12 8 -19
4 -7 -4 -16 -2 -21 6 -4 8 -21 14 -36 14 -23 0 -29 5 -31 27 -2 18 -8 25 -17
22 -7 -3 -16 -1 -20 5 -9 16 5 33 22 27 8 -3 18 -6 22 -6z m141 -136 c0 -8 -5
-12 -10 -9 -6 4 -8 11 -5 16 9 14 15 11 15 -7z m935 -44 c3 -5 1 -10 -4 -10
-6 0 -11 5 -11 10 0 6 2 10 4 10 3 0 8 -4 11 -10z m353 -44 c3 -12 -1 -17 -10
-14 -7 3 -15 13 -16 22 -3 12 1 17 10 14 7 -3 15 -13 16 -22z m-6621 -20 c-3
-7 0 -19 6 -25 8 -8 8 -11 0 -11 -11 0 -23 22 -23 41 0 5 5 9 11 9 6 0 9 -6 6
-14z m6763 -66 l2 25 8 -25 c4 -14 9 -20 9 -15 1 6 6 2 12 -8 8 -13 6 -21 -6
-33 -15 -15 -17 -15 -22 4 -2 11 -13 22 -24 25 -19 5 -19 11 -2 55 5 13 8 8
13 -18 6 -29 8 -31 10 -10z m-15 -50 c3 -5 1 -10 -4 -10 -6 0 -11 5 -11 10 0
6 2 10 4 10 3 0 8 -4 11 -10z m-6405 -60 c0 -5 -5 -10 -11 -10 -5 0 -7 5 -4
10 3 6 8 10 11 10 2 0 4 -4 4 -10z m4450 -50 c0 -5 -4 -10 -10 -10 -5 0 -10 5
-10 10 0 6 5 10 10 10 6 0 10 -4 10 -10z m23 -15 c-3 -9 -8 -14 -10 -11 -3 3
-2 9 2 15 9 16 15 13 8 -4z m-23 -25 c0 -5 -2 -10 -4 -10 -2 0 -12 -3 -22 -7
-16 -6 -17 -5 -4 10 17 19 30 22 30 7z m-2 -60 c-1 -18 -6 -30 -15 -30 -14 0
-17 18 -7 44 10 26 23 18 22 -14z m-58 -50 c0 -5 -4 -10 -10 -10 -5 0 -10 5
-10 10 0 6 5 10 10 10 6 0 10 -4 10 -10z m50 -6 c0 -11 -21 -44 -28 -44 -4 0
-8 11 -8 25 -2 18 3 25 17 25 10 0 19 -3 19 -6z m-4363 -136 c-3 -8 -6 -5 -6
6 -1 11 2 17 5 13 3 -3 4 -12 1 -19z m4113 -98 c0 -5 -7 -10 -15 -10 -8 0 -15
5 -15 10 0 6 7 10 15 10 8 0 15 -4 15 -10z m-678 -75 c-5 -16 -13 -30 -19 -32
-7 -3 -4 10 5 31 19 41 25 42 14 1z m248 15 c0 -5 -4 -10 -10 -10 -5 0 -10 5
-10 10 0 6 5 10 10 10 6 0 10 -4 10 -10z m200 0 c0 -5 -4 -10 -10 -10 -5 0
-10 5 -10 10 0 6 5 10 10 10 6 0 10 -4 10 -10z m320 0 c0 -5 -4 -10 -9 -10 -6
0 -13 5 -16 10 -3 6 1 10 9 10 9 0 16 -4 16 -10z m85 -22 c-15 -49 -29 -30
-16 20 1 1 6 2 12 2 6 0 8 -9 4 -22z m-815 2 c0 -5 -4 -10 -10 -10 -5 0 -10 5
-10 10 0 6 5 10 10 10 6 0 10 -4 10 -10z m780 -26 c0 -8 -5 -14 -12 -14 -6 0
-8 3 -5 7 4 3 2 12 -5 20 -8 11 -7 12 6 7 9 -3 16 -12 16 -20z m-743 -16 c-3
-8 -6 -5 -6 6 -1 11 2 17 5 13 3 -3 4 -12 1 -19z m33 12 c0 -5 -2 -10 -4 -10
-3 0 -8 5 -11 10 -3 6 -1 10 4 10 6 0 11 -4 11 -10z m-40 -39 c0 -16 -12 -41
-20 -41 -4 0 -5 11 -2 25 4 23 22 36 22 16z m-3139 -38 c0 -5 2 -15 4 -23 2
-11 -8 -16 -32 -18 -29 -2 -34 1 -29 14 3 8 6 20 6 25 0 11 50 12 51 2z m3242
-20 c-7 -2 -19 -2 -25 0 -7 3 -2 5 12 5 14 0 19 -2 13 -5z m-3593 -25 c0 -7
-5 -20 -10 -28 -7 -12 -12 -12 -21 -3 -9 9 -9 16 1 28 15 18 30 20 30 3z
m3545 -28 c-5 -16 -10 -19 -18 -11 -7 7 -6 15 3 26 17 20 24 13 15 -15z m35 8
c0 -19 -2 -20 -10 -8 -13 19 -13 30 0 30 6 0 10 -10 10 -22z m-3633 6 c-3 -3
-12 -4 -19 -1 -8 3 -5 6 6 6 11 1 17 -2 13 -5z m407 -19 c11 -16 12 -25 5 -25
-12 0 -38 29 -39 43 0 16 18 6 34 -18z m3274 7 c6 -18 -15 -14 -22 4 -4 10 -1
14 6 12 6 -2 14 -10 16 -16z m-3640 -36 c-7 -8 -15 -12 -17 -11 -5 6 10 25 20
25 5 0 4 -6 -3 -14z m-537 -11 c0 -13 -41 -19 -41 -7 0 11 20 22 33 18 5 -1 8
-6 8 -11z m924 -5 c3 -5 1 -10 -4 -10 -6 0 -11 5 -11 10 0 6 2 10 4 10 3 0 8
-4 11 -10z m-365 -26 c0 -14 -4 -23 -10 -19 -5 3 -10 15 -10 26 0 10 5 19 10
19 6 0 10 -12 10 -26z m3890 -4 c-6 -11 -16 -17 -22 -14 -7 5 -5 12 7 21 25
18 28 17 15 -7z m-160 -3 c0 -5 6 -4 14 2 11 9 17 8 29 -4 10 -9 18 -11 22 -5
11 18 21 11 23 -17 3 -33 12 -44 12 -15 0 25 8 27 31 9 23 -17 30 -57 14 -73
-16 -16 -45 -8 -45 13 0 8 -4 11 -10 8 -5 -3 -10 0 -10 7 0 9 -3 9 -10 -2 -7
-10 -12 -12 -17 -4 -5 6 -15 14 -23 17 -12 4 -11 6 3 6 10 1 15 6 12 11 -4 6
-16 8 -27 5 -14 -5 -21 -1 -25 15 -3 13 -11 19 -19 16 -8 -3 -14 0 -14 7 0 7
9 13 20 13 11 0 20 -4 20 -9z m-3352 -32 c-3 -3 -9 2 -12 12 -6 14 -5 15 5 6
7 -7 10 -15 7 -18z m3554 0 c-2 -14 -6 -25 -8 -25 -2 0 -4 11 -4 25 0 14 4 25
9 25 4 0 6 -11 3 -25z m-2041 -8 c-10 -9 -11 -8 -5 6 3 10 9 15 12 12 3 -3 0
-11 -7 -18z m-1091 9 c0 -2 -7 -6 -15 -10 -8 -3 -15 -1 -15 4 0 6 7 10 15 10
8 0 15 -2 15 -4z m915 -23 c-3 -16 -11 -32 -17 -38 -8 -7 -9 -2 -4 15 3 14 6
31 6 38 0 6 5 12 11 12 7 0 9 -10 4 -27z m-649 -40 c24 -26 34 -29 34 -10 0 6
11 13 25 13 19 2 24 -2 21 -19 -4 -26 -76 -38 -76 -12 0 17 -16 20 -25 5 -12
-20 -27 -10 -23 15 3 14 1 25 -3 25 -5 0 -9 7 -9 16 0 14 2 15 17 3 10 -8 27
-24 39 -36z m692 -3 c-12 -19 -28 -27 -28 -14 0 6 30 33 38 34 1 0 -3 -9 -10
-20z m-579 -38 c1 -7 -3 -10 -9 -7 -5 3 -10 18 -9 33 0 24 1 25 9 7 5 -11 9
-26 9 -33z m631 32 c0 -3 -7 -12 -15 -21 -20 -19 -32 -10 -14 11 14 15 29 21
29 10z m-2264 -16 c5 -8 2 -9 -9 -5 -11 4 -17 1 -17 -9 0 -8 -4 -13 -10 -9
-13 8 -1 35 15 35 8 0 17 -5 21 -12z m1264 2 c0 -5 -4 -10 -10 -10 -5 0 -10 5
-10 10 0 6 5 10 10 10 6 0 10 -4 10 -10z m410 -46 c0 -8 -5 -12 -10 -9 -6 4
-8 11 -5 16 9 14 15 11 15 -7z m58 4 l27 4 -24 -17 c-19 -15 -25 -15 -32 -4
-5 8 -8 19 -8 24 0 6 3 5 5 -1 3 -6 17 -9 32 -6z m32 -58 c0 -5 -4 -10 -9 -10
-6 0 -13 5 -16 10 -3 6 1 10 9 10 9 0 16 -4 16 -10z m29 -16 c-6 -8 -21 -13
-33 -13 -20 2 -20 2 2 6 12 2 22 11 22 19 0 8 5 12 10 9 8 -5 7 -11 -1 -21z
m-769 -43 c0 -32 -6 -24 -14 19 -4 25 -3 31 4 20 5 -8 10 -26 10 -39z m821 34
c-1 -15 -24 -12 -29 3 -3 9 2 13 12 10 10 -1 17 -7 17 -13z m979 5 c0 -5 -2
-10 -4 -10 -3 0 -8 5 -11 10 -3 6 -1 10 4 10 6 0 11 -4 11 -10z m-1094 -9 c-4
-5 -1 -11 5 -13 6 -2 2 -11 -9 -21 -18 -16 -19 -16 -19 13 0 19 5 30 14 30 8
0 12 -4 9 -9z m-525 -24 c-13 -13 -26 -3 -16 12 3 6 11 8 17 5 6 -4 6 -10 -1
-17z m486 -13 c-5 -37 -12 -51 -20 -37 -5 10 11 73 19 73 3 0 3 -16 1 -36z
m1680 30 c-3 -3 -12 -4 -19 -1 -8 3 -5 6 6 6 11 1 17 -2 13 -5z m-1557 -38 c0
-20 -40 -66 -56 -66 -3 0 4 17 16 37 14 23 18 39 11 41 -20 7 -11 20 9 15 12
-3 20 -14 20 -27z m-844 -28 c-3 -13 -5 -27 -5 -33 -1 -5 -5 -4 -10 4 -10 15
-3 51 10 51 5 0 7 -10 5 -22z m614 -6 c0 -4 -9 -15 -20 -25 -22 -19 -29 0 -8
21 14 14 28 16 28 4z m1522 -12 c27 -24 19 -34 -16 -21 -26 10 -32 21 -19 34
9 10 12 9 35 -13z m-2039 1 c3 8 6 9 6 3 1 -6 -6 -17 -14 -24 -13 -10 -15 -9
-15 11 0 17 3 20 9 10 7 -11 9 -11 14 0z m2692 -21 c3 -5 2 -10 -4 -10 -5 0
-13 5 -16 10 -3 6 -2 10 4 10 5 0 13 -4 16 -10z m-2775 -20 c0 -5 -5 -10 -11
-10 -5 0 -7 5 -4 10 3 6 8 10 11 10 2 0 4 -4 4 -10z m650 -10 c0 -5 -4 -10
-10 -10 -5 0 -10 5 -10 10 0 6 5 10 10 10 6 0 10 -4 10 -10z m147 -12 c-3 -8
-6 -5 -6 6 -1 11 2 17 5 13 3 -3 4 -12 1 -19z m593 12 c0 -5 -5 -10 -11 -10
-5 0 -7 5 -4 10 3 6 8 10 11 10 2 0 4 -4 4 -10z m45 -20 c-3 -5 -14 -10 -23
-9 -14 0 -13 2 3 9 27 11 27 11 20 0z m-644 -10 c5 0 9 -4 9 -10 0 -16 -37
-11 -44 6 -5 12 -2 15 10 10 8 -3 20 -6 25 -6z m583 -25 c-4 -8 -8 -15 -10
-15 -2 0 -4 7 -4 15 0 8 4 15 10 15 5 0 7 -7 4 -15z m-965 -22 c0 -29 -17 -78
-18 -55 -1 6 -10 12 -21 12 -23 0 -23 27 -1 54 21 25 41 20 40 -11z m1082 4
c-1 -12 -15 -9 -19 4 -3 6 1 10 8 8 6 -3 11 -8 11 -12z m-481 -23 c0 -8 -4
-12 -10 -9 -5 3 -10 13 -10 21 0 8 5 12 10 9 6 -3 10 -13 10 -21z m-552 -20
c-10 -10 -36 8 -31 22 4 11 7 11 20 -2 9 -8 13 -17 11 -20z m382 16 c-12 -23
-30 -27 -30 -7 0 17 10 27 27 27 11 0 11 -5 3 -20z m-780 -9 c0 -6 -4 -13 -10
-16 -5 -3 -10 1 -10 9 0 9 5 16 10 16 6 0 10 -4 10 -9z"/>
<path d="M4557 11803 c-4 -3 -7 -11 -7 -17 0 -6 5 -5 12 2 6 6 9 14 7 17 -3 3
-9 2 -12 -2z"/>
<path d="M4757 11711 c-5 -22 1 -33 14 -25 12 7 12 44 0 44 -5 0 -11 -9 -14
-19z"/>
<path d="M4777 11650 c3 -11 7 -20 9 -20 2 0 4 9 4 20 0 11 -4 20 -9 20 -5 0
-7 -9 -4 -20z"/>
<path d="M4710 11605 c0 -5 5 -17 10 -25 5 -8 10 -10 10 -5 0 6 -5 17 -10 25
-5 8 -10 11 -10 5z"/>
<path d="M4760 11510 c0 -5 5 -10 10 -10 6 0 10 5 10 10 0 6 -4 10 -10 10 -5
0 -10 -4 -10 -10z"/>
<path d="M3939 11473 c-10 -64 -9 -75 6 -63 17 14 21 70 5 70 -5 0 -11 -3 -11
-7z"/>
<path d="M4560 11459 c0 -19 72 -79 96 -79 13 0 27 0 31 -1 4 0 9 4 11 9 2 6
-11 13 -27 17 -17 4 -31 12 -31 20 0 7 -15 20 -34 29 -40 19 -46 20 -46 5z"/>
<path d="M3517 11313 c-12 -19 5 -117 27 -162 25 -48 41 -61 75 -61 14 0 17 6
13 25 -2 14 -11 25 -18 25 -8 0 -14 4 -14 9 0 5 -8 12 -18 15 -25 8 -51 63
-54 113 -3 45 -4 48 -11 36z"/>
<path d="M3621 11300 c0 -8 4 -24 9 -35 5 -13 9 -14 9 -5 0 8 -4 24 -9 35 -5
13 -9 14 -9 5z"/>
<path d="M3650 11241 c0 -21 13 -41 26 -41 17 0 18 22 2 38 -14 14 -28 16 -28
3z"/>
<path d="M3492 11150 c0 -14 2 -19 5 -12 2 6 2 18 0 25 -3 6 -5 1 -5 -13z"/>
<path d="M5360 10909 c0 -5 5 -7 10 -4 6 3 10 8 10 11 0 2 -4 4 -10 4 -5 0
-10 -5 -10 -11z"/>
<path d="M4055 10346 c-20 -30 -13 -46 21 -46 22 0 25 4 22 32 -4 40 -22 46
-43 14z"/>
<path d="M3767 9823 c-13 -13 -7 -21 13 -16 11 3 20 9 20 14 0 10 -24 12 -33
2z"/>
<path d="M3850 9810 c0 -5 6 -10 14 -10 8 0 18 5 21 10 3 6 -3 10 -14 10 -12
0 -21 -4 -21 -10z"/>
<path d="M3825 9800 c-3 -5 -1 -10 4 -10 6 0 11 5 11 10 0 6 -2 10 -4 10 -3 0
-8 -4 -11 -10z"/>
<path d="M3768 9783 c6 -2 18 -2 25 0 6 3 1 5 -13 5 -14 0 -19 -2 -12 -5z"/>
<path d="M4472 9646 c-18 -41 2 -89 23 -56 4 6 11 8 16 5 5 -4 9 6 9 20 0 20
-4 26 -14 22 -10 -4 -16 2 -19 16 -3 20 -4 20 -15 -7z"/>
<path d="M4531 9604 c0 -11 3 -14 6 -6 3 7 2 16 -1 19 -3 4 -6 -2 -5 -13z"/>
<path d="M4550 9591 c0 -6 4 -12 10 -16 5 -3 7 -12 4 -20 -3 -8 5 -21 20 -30
14 -10 26 -22 26 -29 1 -12 45 -66 55 -66 12 0 4 20 -20 48 -18 22 -21 32 -13
40 9 9 9 12 0 12 -7 0 -12 7 -12 15 0 9 -9 15 -22 15 -12 0 -18 3 -15 7 8 7
-11 33 -24 33 -5 0 -9 -4 -9 -9z"/>
<path d="M4306 9475 c-9 -7 -40 -21 -68 -30 -28 -9 -62 -25 -77 -36 -15 -11
-65 -26 -119 -36 l-92 -16 0 -46 c0 -25 -5 -63 -11 -84 -9 -35 -8 -43 18 -80
15 -23 30 -58 33 -77 4 -24 11 -36 27 -40 12 -3 32 -18 44 -35 29 -38 39 -45
65 -45 13 0 24 -8 27 -19 3 -13 0 -18 -8 -15 -16 6 -25 -18 -18 -46 4 -17 8
-19 15 -8 7 9 8 4 4 -14 -4 -16 -2 -28 4 -28 5 0 10 5 10 11 0 5 4 7 10 4 5
-3 16 6 22 21 10 22 10 28 0 32 -7 2 -10 8 -6 13 3 5 1 9 -4 9 -5 0 -12 9 -15
19 -4 16 2 21 25 26 16 4 32 5 35 2 14 -14 76 24 141 87 40 39 80 70 88 68 11
-2 14 2 10 15 -5 15 4 24 39 41 58 28 61 28 40 -4 -27 -41 -7 -51 60 -30 66
20 85 45 85 107 0 70 -6 80 -45 73 -27 -4 -37 0 -53 21 -12 14 -33 27 -50 29
-42 6 -106 41 -134 74 -31 37 -78 54 -102 37z"/>
<path d="M5038 11833 c7 -3 16 -2 19 1 4 3 -2 6 -13 5 -11 0 -14 -3 -6 -6z"/>
<path d="M5985 7470 c3 -5 8 -10 11 -10 2 0 4 5 4 10 0 6 -5 10 -11 10 -5 0
-7 -4 -4 -10z"/>
<path d="M5981 7324 c0 -11 3 -14 6 -6 3 7 2 16 -1 19 -3 4 -6 -2 -5 -13z"/>
<path d="M6000 7241 c0 -11 4 -22 9 -25 4 -3 6 6 3 19 -5 30 -12 33 -12 6z"/>
<path d="M5820 7221 c0 -5 7 -11 14 -14 10 -4 13 -1 9 9 -6 15 -23 19 -23 5z"/>
<path d="M5852 7130 c0 -14 2 -19 5 -12 2 6 2 18 0 25 -3 6 -5 1 -5 -13z"/>
<path d="M5902 7120 c0 -19 2 -27 5 -17 2 9 2 25 0 35 -3 9 -5 1 -5 -18z"/>
<path d="M5870 7130 c0 -5 5 -10 10 -10 6 0 10 5 10 10 0 6 -4 10 -10 10 -5 0
-10 -4 -10 -10z"/>
<path d="M5878 7104 c-5 -4 -8 -16 -8 -28 0 -14 3 -17 11 -9 6 6 9 19 7 28 -1
9 -6 13 -10 9z"/>
<path d="M6962 6980 c0 -14 2 -19 5 -12 2 6 2 18 0 25 -3 6 -5 1 -5 -13z"/>
<path d="M4870 6941 c0 -5 5 -13 10 -16 6 -3 10 -2 10 4 0 5 -4 13 -10 16 -5
3 -10 2 -10 -4z"/>
<path d="M6100 6920 c0 -5 5 -10 10 -10 6 0 10 5 10 10 0 6 -4 10 -10 10 -5 0
-10 -4 -10 -10z"/>
<path d="M4820 6826 c0 -9 5 -16 10 -16 6 0 10 4 10 9 0 6 -4 13 -10 16 -5 3
-10 -1 -10 -9z"/>
<path d="M4858 6813 c7 -3 16 -2 19 1 4 3 -2 6 -13 5 -11 0 -14 -3 -6 -6z"/>
<path d="M4792 6780 c0 -14 2 -19 5 -12 2 6 2 18 0 25 -3 6 -5 1 -5 -13z"/>
<path d="M4737 6674 c-8 -8 1 -24 14 -24 5 0 9 7 9 15 0 15 -12 20 -23 9z"/>
<path d="M6461 6644 c0 -11 3 -14 6 -6 3 7 2 16 -1 19 -3 4 -6 -2 -5 -13z"/>
<path d="M6481 6644 c0 -11 3 -14 6 -6 3 7 2 16 -1 19 -3 4 -6 -2 -5 -13z"/>
<path d="M8475 6282 c4 -12 8 -43 10 -67 2 -25 7 -50 11 -56 4 -7 3 -10 -2 -7
-5 4 -10 -24 -11 -60 -1 -37 -5 -101 -8 -142 -3 -41 -6 -84 -6 -94 0 -10 -7
-28 -15 -40 -7 -11 -14 -40 -14 -63 0 -24 -4 -43 -10 -43 -5 0 -10 -7 -10 -15
0 -8 -4 -15 -8 -15 -4 0 -7 -23 -5 -51 1 -43 -1 -52 -18 -56 -18 -5 -25 -34
-21 -92 0 -8 -7 -21 -16 -28 -9 -7 -14 -13 -10 -13 4 0 0 -16 -8 -35 -13 -33
-13 -35 5 -35 11 0 23 -4 26 -10 3 -5 0 -7 -9 -4 -10 4 -20 -6 -32 -28 -17
-33 -17 -33 3 -15 11 9 23 17 26 17 19 0 -2 -200 -25 -244 -5 -10 -11 -27 -13
-38 -2 -10 -16 -44 -30 -75 -60 -126 -65 -141 -48 -147 55 -22 173 31 173 78
0 8 3 22 7 32 6 16 7 16 14 -2 6 -15 8 -12 8 13 1 17 5 34 10 37 4 3 11 21 14
41 3 19 13 42 21 51 18 17 21 34 6 34 -6 0 -6 9 0 24 6 17 5 26 -3 30 -9 3 -9
7 -1 13 20 15 35 51 24 58 -5 3 -10 11 -10 16 0 6 5 7 12 3 8 -5 9 0 6 14 -4
12 -3 22 0 22 4 0 15 15 26 33 12 20 20 27 23 19 4 -10 9 -8 19 6 27 39 -6
423 -47 529 -5 13 -9 61 -9 107 0 96 -26 260 -46 296 -14 23 -14 23 -9 2z
m-95 -886 c0 -3 -4 -8 -10 -11 -5 -3 -10 -1 -10 4 0 6 5 11 10 11 6 0 10 -2
10 -4z"/>
<path d="M7029 6163 c-5 -16 -11 -33 -14 -40 -2 -6 0 -13 5 -15 5 -2 11 -18
12 -37 3 -47 45 -56 51 -10 2 8 5 19 9 24 7 12 4 64 -6 88 -12 27 -45 21 -57
-10z"/>
<path d="M9507 6093 c-3 -3 -3 -12 0 -20 3 -8 0 -19 -8 -24 -11 -7 -10 -9 6
-10 16 -1 16 -2 -5 -8 -14 -4 -24 -13 -23 -18 1 -6 -13 -27 -32 -48 -19 -20
-35 -42 -35 -48 0 -7 -16 -45 -35 -84 -19 -40 -35 -77 -35 -83 0 -5 -4 -10 -9
-10 -5 0 -14 -13 -21 -30 -7 -16 -16 -28 -20 -25 -7 4 -33 -48 -44 -90 -6 -21
-63 -61 -81 -57 -6 1 -23 -9 -39 -23 -16 -14 -24 -25 -19 -25 6 0 13 -9 16
-20 5 -19 -6 -35 -80 -116 -18 -20 -33 -40 -33 -45 0 -4 -8 -6 -17 -3 -15 5
-16 4 -3 -5 13 -10 9 -16 -22 -42 -21 -17 -38 -37 -38 -45 0 -7 -9 -18 -20
-24 -11 -6 -20 -17 -20 -24 0 -8 -9 -16 -19 -19 -11 -3 -27 -21 -35 -41 -8
-20 -20 -36 -25 -36 -7 0 -7 -8 -1 -24 5 -13 7 -27 4 -30 -2 -3 1 -2 7 3 6 5
12 20 12 34 2 20 8 26 30 29 21 4 27 1 27 -14 0 -10 4 -18 9 -18 6 0 8 -9 6
-21 -4 -18 -1 -20 28 -14 18 4 36 11 41 16 6 5 18 9 27 9 10 0 25 7 33 16 9 8
20 12 26 9 5 -3 10 3 10 14 0 12 5 21 10 21 6 0 10 -5 10 -10 0 -15 49 22 50
37 0 7 9 17 20 23 11 6 20 18 21 28 0 10 3 12 6 5 2 -7 9 -13 15 -13 6 0 8 7
4 15 -3 8 -1 15 4 15 6 0 10 9 10 20 0 10 9 24 20 30 13 7 18 16 13 23 -4 7
-8 15 -8 20 0 16 -19 1 -20 -16 -1 -11 -6 -22 -12 -25 -5 -4 -13 -14 -16 -22
-4 -12 -6 -12 -6 2 -1 9 5 23 13 31 17 17 15 45 -5 59 -10 7 -8 8 11 4 14 -3
32 -1 40 4 10 7 11 10 3 10 -7 0 -13 9 -13 21 0 16 4 19 20 14 16 -5 20 -2 20
14 0 14 9 23 25 27 19 5 24 11 20 25 -4 11 -2 19 4 19 6 0 11 -4 11 -10 0 -5
4 -10 10 -10 17 0 -1 30 -19 30 -9 1 -1 7 17 15 29 13 34 20 31 41 0 4 5 10
13 15 7 5 14 13 14 19 1 5 2 13 3 17 0 3 10 -2 21 -12 19 -18 20 -17 20 3 0
15 -6 22 -19 22 -14 0 -18 5 -14 21 4 13 8 17 13 9 5 -8 9 -4 13 9 3 12 1 21
-4 21 -5 0 -9 4 -9 10 0 5 7 7 15 4 10 -4 15 0 15 15 0 15 6 21 23 21 14 0 26
9 34 26 11 23 10 27 -8 31 -14 4 -17 9 -9 18 8 9 8 15 0 20 -5 3 -10 11 -10
17 0 6 11 -1 24 -17 30 -35 66 -28 65 13 0 26 -1 26 -9 5 -10 -25 -25 -30 -36
-11 -4 6 0 16 8 22 10 8 14 21 11 37 -3 15 1 30 10 38 13 10 13 16 2 38 -10
20 -11 31 -3 40 8 10 5 13 -12 13 -13 0 -20 3 -16 7 4 4 15 8 24 8 9 0 18 8
20 18 2 10 -3 17 -13 17 -11 0 -15 7 -13 21 2 15 -4 24 -19 30 -11 4 -23 5
-26 2z m-17 -363 c0 -5 -5 -10 -11 -10 -5 0 -7 5 -4 10 3 6 8 10 11 10 2 0 4
-4 4 -10z m-314 -482 c-19 -27 -21 -13 -3 25 8 17 13 22 15 12 2 -8 -4 -25
-12 -37z"/>
<path d="M7280 5935 c-7 -9 -8 -15 -2 -15 5 0 12 7 16 15 3 8 4 15 2 15 -2 0
-9 -7 -16 -15z"/>
<path d="M3892 5920 c-6 -11 -12 -22 -12 -25 0 -11 20 6 30 26 14 25 -2 25
-18 -1z"/>
<path d="M7193 5923 c5 -25 -17 -33 -26 -10 -5 12 -57 -33 -57 -51 0 -4 -9
-18 -20 -30 -23 -24 -19 -28 11 -11 20 10 20 10 2 -18 -9 -15 -22 -32 -28 -36
-6 -5 -3 -7 7 -3 11 3 21 -2 28 -14 13 -25 13 -30 -5 -30 -21 0 -37 -34 -23
-48 9 -9 7 -12 -9 -12 -17 0 -23 7 -26 33 l-4 32 -1 -37 c-1 -21 3 -38 11 -41
8 -3 5 -10 -10 -22 -13 -9 -23 -22 -23 -28 0 -7 7 -3 16 8 13 18 14 17 8 -13
-4 -21 -3 -32 5 -32 6 0 11 8 11 19 0 10 7 24 15 31 11 9 15 9 15 1 0 -7 5 -9
13 -4 6 4 15 8 20 9 4 1 9 2 12 3 3 0 -3 11 -14 22 -15 17 -17 24 -8 34 7 7
18 10 24 8 7 -3 13 -1 13 5 0 5 10 12 21 15 16 4 20 11 16 27 -4 16 -2 20 9
16 9 -3 16 3 20 19 3 13 12 26 21 29 8 3 11 10 8 16 -3 5 1 10 10 10 9 0 14
-4 10 -9 -3 -5 -1 -12 5 -16 5 -3 10 -17 10 -31 0 -32 15 -30 36 5 l17 29 29
-35 c15 -20 28 -41 29 -47 1 -6 3 -37 5 -70 1 -32 5 -60 8 -63 2 -3 0 -18 -6
-34 -7 -21 -7 -33 2 -44 14 -17 5 -50 -11 -40 -7 5 -9 -4 -7 -26 3 -30 6 -34
31 -31 23 2 27 -1 27 -22 0 -13 6 -26 13 -29 9 -3 9 -7 -1 -19 -26 -32 25 -32
56 -1 17 16 52 17 52 1 0 -8 3 -9 10 -2 12 12 15 58 7 89 -3 11 -6 23 -6 28
-1 4 -8 7 -16 7 -9 0 -12 6 -9 15 4 10 0 15 -11 15 -12 0 -16 6 -12 20 6 22
-8 37 -18 20 -23 -37 -26 70 -3 113 6 13 6 23 -3 33 -9 11 -9 20 -1 37 15 30
10 81 -11 101 -9 10 -17 28 -17 41 0 27 -35 53 -43 32 -3 -6 -6 2 -6 20 -1 29
-4 32 -31 31 -16 -1 -30 -5 -30 -9 0 -5 -7 -6 -15 -3 -8 3 -19 3 -25 -1 -14
-9 7 -46 23 -39 10 3 12 -5 9 -31 -4 -31 -7 -36 -28 -33 -14 2 -24 7 -23 12 0
5 -5 13 -13 17 -10 7 -10 9 0 9 6 0 12 9 12 21 0 16 -4 19 -20 14 -16 -5 -20
-2 -20 19 0 14 -4 26 -10 26 -5 0 -10 -5 -10 -10 0 -13 -32 -9 -43 5 -5 6 -7
0 -4 -12z m27 -109 c0 -2 -7 -4 -15 -4 -8 0 -15 4 -15 10 0 5 7 7 15 4 8 -4
15 -8 15 -10z m-71 -25 c-11 -11 -23 -18 -26 -16 -7 8 29 47 38 41 5 -3 -1
-14 -12 -25z m21 -69 c0 -5 -2 -10 -4 -10 -3 0 -8 5 -11 10 -3 6 -1 10 4 10 6
0 11 -4 11 -10z"/>
<path d="M3126 5837 c-15 -15 -27 -21 -29 -14 -5 13 -57 -37 -57 -54 0 -14 42
-1 56 17 6 8 28 21 48 29 21 9 36 21 34 27 -8 22 -27 20 -52 -5z"/>
<path d="M9994 5849 c-3 -6 -2 -15 3 -20 5 -5 9 -1 9 11 0 23 -2 24 -12 9z"/>
<path d="M10037 5853 c-4 -3 -7 -11 -7 -17 0 -6 5 -5 12 2 6 6 9 14 7 17 -3 3
-9 2 -12 -2z"/>
<path d="M3627 5738 c-26 -28 -47 -58 -47 -66 0 -8 -11 -30 -26 -49 -14 -18
-22 -38 -18 -45 4 -7 3 -8 -4 -4 -8 5 -12 0 -12 -13 0 -10 -6 -21 -12 -24 -10
-3 -10 -8 1 -18 8 -8 11 -9 7 -2 -3 6 0 15 7 20 8 4 24 26 36 48 12 22 32 54
44 72 44 64 79 124 75 128 -2 2 -25 -19 -51 -47z"/>
<path d="M3015 5770 c3 -5 8 -10 11 -10 2 0 4 5 4 10 0 6 -5 10 -11 10 -5 0
-7 -4 -4 -10z"/>
<path d="M7060 5739 c0 -5 5 -7 10 -4 6 3 10 8 10 11 0 2 -4 4 -10 4 -5 0 -10
-5 -10 -11z"/>
<path d="M2910 5719 c0 -6 -7 -9 -14 -6 -9 4 -17 -2 -21 -14 -6 -19 -39 -38
-80 -46 -10 -2 -22 -7 -25 -11 -9 -12 -49 -32 -65 -32 -9 0 -22 -14 -29 -31
-8 -19 -16 -27 -20 -20 -10 15 -46 -4 -46 -24 0 -8 -7 -15 -15 -15 -8 0 -15
-7 -15 -15 0 -8 -9 -20 -20 -27 -11 -7 -20 -18 -20 -24 0 -7 -9 -10 -22 -6
-14 3 -19 2 -14 -6 5 -8 0 -12 -13 -12 -12 0 -21 -7 -21 -15 0 -8 -4 -15 -10
-15 -10 0 -19 -7 -77 -59 l-32 -30 28 -30 c44 -47 74 -49 118 -11 56 48 193
180 193 186 0 5 52 56 188 187 47 46 67 87 42 87 -5 0 -10 -5 -10 -11z"/>
<path d="M6941 5708 c-7 -11 -10 -22 -8 -24 8 -9 37 8 37 21 0 23 -15 25 -29
3z"/>
<path d="M3756 5703 c-6 -14 -5 -15 5 -6 7 7 10 15 7 18 -3 3 -9 -2 -12 -12z"/>
<path d="M3715 5670 c-3 -5 -2 -10 4 -10 5 0 13 5 16 10 3 6 2 10 -4 10 -5 0
-13 -4 -16 -10z"/>
<path d="M8302 5633 c5 -23 56 -19 78 5 14 14 13 15 -2 3 -11 -8 -18 -9 -23
-1 -3 5 -17 10 -31 10 -19 0 -25 -5 -22 -17z"/>
<path d="M7515 5620 c-3 -5 -2 -10 4 -10 5 0 13 5 16 10 3 6 2 10 -4 10 -5 0
-13 -4 -16 -10z"/>
<path d="M6985 5600 c-3 -5 -1 -10 4 -10 6 0 11 5 11 10 0 6 -2 10 -4 10 -3 0
-8 -4 -11 -10z"/>
<path d="M7510 5591 c0 -5 5 -13 10 -16 6 -3 10 -2 10 4 0 5 -4 13 -10 16 -5
3 -10 2 -10 -4z"/>
<path d="M3480 5502 c0 -10 -8 -27 -17 -38 -23 -25 -53 -74 -60 -96 -3 -10 -9
-18 -14 -18 -5 0 -9 -9 -9 -21 0 -11 -4 -18 -9 -14 -5 3 -24 -24 -42 -60 -17
-36 -36 -65 -40 -65 -5 0 -9 -7 -9 -15 0 -8 -3 -15 -7 -15 -9 0 -79 -145 -117
-240 -27 -67 -32 -100 -17 -100 11 0 101 136 101 154 0 29 31 85 64 117 19 18
33 36 30 41 -3 4 9 38 26 75 17 38 42 93 56 123 14 30 36 71 49 90 29 43 41
85 26 94 -6 4 -11 -1 -11 -12z"/>
<path d="M3532 5465 c-17 -31 -32 -62 -33 -68 0 -7 -9 -25 -19 -42 -49 -77
-113 -224 -92 -211 13 8 184 355 180 366 -2 6 -18 -14 -36 -45z"/>
<path d="M7548 5503 c7 -3 16 -2 19 1 4 3 -2 6 -13 5 -11 0 -14 -3 -6 -6z"/>
<path d="M9362 5469 c2 -6 7 -10 11 -10 4 1 14 1 22 1 8 0 15 5 15 10 0 6 -12
10 -26 10 -14 0 -24 -5 -22 -11z"/>
<path d="M6680 5409 c0 -5 5 -7 10 -4 6 3 10 8 10 11 0 2 -4 4 -10 4 -5 0 -10
-5 -10 -11z"/>
<path d="M2650 5340 c-8 -5 -12 -12 -9 -15 4 -3 12 1 19 10 14 17 11 19 -10 5z"/>
<path d="M7403 5319 c-13 -33 -10 -49 8 -49 6 0 7 5 3 12 -4 6 -1 16 7 22 17
14 21 46 5 46 -6 0 -17 -14 -23 -31z"/>
<path d="M2255 5310 c-3 -5 1 -10 9 -10 9 0 16 5 16 10 0 6 -4 10 -9 10 -6 0
-13 -4 -16 -10z"/>
<path d="M2580 5297 c0 -9 -4 -17 -9 -17 -9 0 -61 -46 -61 -55 0 -12 18 -3 55
29 32 28 38 37 28 47 -11 11 -13 10 -13 -4z"/>
<path d="M7415 5250 c3 -5 8 -10 11 -10 2 0 4 5 4 10 0 6 -5 10 -11 10 -5 0
-7 -4 -4 -10z"/>
<path d="M8535 5220 c3 -5 8 -10 11 -10 2 0 4 5 4 10 0 6 -5 10 -11 10 -5 0
-7 -4 -4 -10z"/>
<path d="M8520 5188 c0 -4 9 -8 20 -8 11 0 20 4 20 8 0 4 -9 8 -20 8 -11 0
-20 -4 -20 -8z"/>
<path d="M8530 5160 c0 -5 5 -10 10 -10 6 0 10 5 10 10 0 6 -4 10 -10 10 -5 0
-10 -4 -10 -10z"/>
<path d="M8610 5136 c0 -7 -8 -20 -17 -27 -15 -12 -16 -12 -10 4 4 11 3 16 -3
12 -6 -3 -10 -12 -10 -20 0 -7 -9 -16 -19 -20 -10 -3 -21 -14 -24 -25 -3 -11
-13 -23 -24 -27 -24 -9 -34 -25 -24 -38 11 -13 2 -75 -10 -75 -16 0 -10 -38 7
-44 9 -3 17 -6 20 -6 7 0 54 79 54 90 0 6 18 47 40 91 42 84 46 99 30 99 -5 0
-10 -6 -10 -14z m-109 -179 c-10 -9 -11 -8 -5 6 3 10 9 15 12 12 3 -3 0 -11
-7 -18z"/>
<path d="M8865 5030 c3 -5 8 -10 11 -10 2 0 4 5 4 10 0 6 -5 10 -11 10 -5 0
-7 -4 -4 -10z"/>
<path d="M7405 5010 c3 -5 8 -10 11 -10 2 0 4 5 4 10 0 6 -5 10 -11 10 -5 0
-7 -4 -4 -10z"/>
<path d="M6210 4290 c0 -5 5 -10 10 -10 6 0 10 5 10 10 0 6 -4 10 -10 10 -5 0
-10 -4 -10 -10z"/>
<path d="M6005 4280 c3 -5 10 -10 16 -10 5 0 9 5 9 10 0 6 -7 10 -16 10 -8 0
-12 -4 -9 -10z"/>
<path d="M4981 4254 c0 -11 3 -14 6 -6 3 7 2 16 -1 19 -3 4 -6 -2 -5 -13z"/>
<path d="M5415 4240 l-30 -6 30 -6 c32 -7 39 -5 34 9 -2 5 -17 6 -34 3z"/>
<path d="M5790 4210 c0 -5 5 -10 11 -10 5 0 7 5 4 10 -3 6 -8 10 -11 10 -2 0
-4 -4 -4 -10z"/>
<path d="M5840 4210 c0 -5 5 -10 11 -10 5 0 7 5 4 10 -3 6 -8 10 -11 10 -2 0
-4 -4 -4 -10z"/>
<path d="M5935 4150 c-3 -5 -1 -10 4 -10 6 0 11 5 11 10 0 6 -2 10 -4 10 -3 0
-8 -4 -11 -10z"/>
<path d="M6210 4100 c0 -5 5 -10 10 -10 6 0 10 5 10 10 0 6 -4 10 -10 10 -5 0
-10 -4 -10 -10z"/>
<path d="M6170 4090 c0 -5 5 -10 10 -10 6 0 10 5 10 10 0 6 -4 10 -10 10 -5 0
-10 -4 -10 -10z"/>
<path d="M6490 4029 c0 -5 5 -7 10 -4 6 3 10 8 10 11 0 2 -4 4 -10 4 -5 0 -10
-5 -10 -11z"/>
<path d="M8082 3920 c0 -14 2 -19 5 -12 2 6 2 18 0 25 -3 6 -5 1 -5 -13z"/>
<path d="M6935 3910 c3 -5 11 -10 16 -10 6 0 7 5 4 10 -3 6 -11 10 -16 10 -6
0 -7 -4 -4 -10z"/>
<path d="M8196 3894 c-3 -9 -2 -23 4 -32 9 -15 10 -14 16 6 4 14 12 21 20 18
8 -3 11 0 7 10 -7 19 -39 18 -47 -2z"/>
<path d="M8355 3890 c-3 -5 -2 -10 4 -10 5 0 13 5 16 10 3 6 2 10 -4 10 -5 0
-13 -4 -16 -10z"/>
<path d="M8358 3823 c7 -3 16 -2 19 1 4 3 -2 6 -13 5 -11 0 -14 -3 -6 -6z"/>
<path d="M8280 3665 c0 -8 6 -15 14 -15 8 0 16 7 20 15 4 10 -1 15 -14 15 -11
0 -20 -7 -20 -15z"/>
<path d="M7620 3560 c0 -6 7 -10 15 -10 8 0 15 2 15 4 0 2 -7 6 -15 10 -8 3
-15 1 -15 -4z"/>
<path d="M7600 3529 c0 -5 5 -7 10 -4 6 3 10 8 10 11 0 2 -4 4 -10 4 -5 0 -10
-5 -10 -11z"/>
<path d="M7090 2770 c0 -5 5 -10 10 -10 6 0 10 5 10 10 0 6 -4 10 -10 10 -5 0
-10 -4 -10 -10z"/>
<path d="M7124 2740 c-12 -4 -24 -18 -27 -29 -7 -29 4 -25 31 10 13 16 22 29
20 28 -2 0 -13 -4 -24 -9z"/>
<path d="M7316 2729 c-14 -9 -16 -13 -5 -20 18 -11 4 -23 -17 -15 -9 4 -14 12
-10 21 4 12 2 13 -13 6 -33 -18 -42 -37 -32 -64 7 -17 7 -28 0 -32 -14 -9 -1
-25 16 -19 8 3 28 -1 44 -9 25 -13 31 -13 35 -1 3 8 3 21 -1 30 -4 12 0 14 23
9 17 -4 24 -3 17 2 -8 6 -9 14 -3 23 16 25 11 40 -16 50 -14 6 -22 14 -19 20
8 12 5 12 -19 -1z"/>
<path d="M7160 2705 c0 -14 0 -27 0 -30 0 -3 3 -5 7 -5 5 0 9 13 10 30 2 16
-2 30 -7 30 -6 0 -10 -11 -10 -25z"/>
<path d="M7480 2660 c0 -5 5 -10 10 -10 6 0 10 5 10 10 0 6 -4 10 -10 10 -5 0
-10 -4 -10 -10z"/>
<path d="M7450 2622 c0 -4 5 -13 11 -19 8 -8 5 -14 -10 -23 -12 -6 -26 -8 -32
-4 -6 3 -13 -3 -16 -15 -3 -12 -12 -21 -19 -21 -8 0 -14 -4 -14 -10 0 -16 13
-12 43 14 16 14 34 23 40 20 7 -2 18 0 25 5 10 6 11 13 1 34 -11 25 -29 37
-29 19z"/>
<path d="M7650 2613 c0 -5 4 -14 9 -21 7 -11 9 -11 14 1 3 8 3 18 0 21 -9 8
-23 7 -23 -1z"/>
<path d="M7425 2600 c-3 -5 -1 -10 4 -10 6 0 11 5 11 10 0 6 -2 10 -4 10 -3 0
-8 -4 -11 -10z"/>
<path d="M7980 2604 c0 -3 6 -12 14 -19 17 -17 30 -7 15 12 -12 13 -29 18 -29
7z"/>
<path d="M7200 2565 c0 -8 -9 -15 -20 -15 -29 0 -25 -17 5 -22 22 -5 25 -2 25
23 0 16 -2 29 -5 29 -3 0 -5 -7 -5 -15z"/>
<path d="M7271 2564 c0 -11 3 -14 6 -6 3 7 2 16 -1 19 -3 4 -6 -2 -5 -13z"/>
<path d="M7350 2488 c0 -19 2 -20 10 -8 13 19 13 30 0 30 -5 0 -10 -10 -10
-22z"/>
<path d="M7205 2479 c-12 -19 5 -23 22 -6 16 16 16 17 1 17 -9 0 -20 -5 -23
-11z"/>
<path d="M1678 4678 c5 -5 16 -8 23 -6 8 3 3 7 -10 11 -17 4 -21 3 -13 -5z"/>
<path d="M1870 4620 c0 -5 5 -10 10 -10 6 0 10 5 10 10 0 6 -4 10 -10 10 -5 0
-10 -4 -10 -10z"/>
<path d="M1852 4555 c0 -16 2 -22 5 -12 2 9 2 23 0 30 -3 6 -5 -1 -5 -18z"/>
<path d="M2005 4130 c3 -5 8 -10 11 -10 2 0 4 5 4 10 0 6 -5 10 -11 10 -5 0
-7 -4 -4 -10z"/>
<path d="M3940 2910 c0 -5 5 -10 10 -10 6 0 10 5 10 10 0 6 -4 10 -10 10 -5 0
-10 -4 -10 -10z"/>
<path d="M4896 1582 c-3 -9 -8 -38 -12 -64 -7 -52 4 -60 47 -38 11 6 19 7 19
1 0 -16 40 1 52 23 28 51 6 85 -60 91 -32 3 -42 0 -46 -13z"/>
<path d="M6670 1480 c0 -5 5 -10 10 -10 6 0 10 5 10 10 0 6 -4 10 -10 10 -5 0
-10 -4 -10 -10z"/>
<path d="M6738 1403 c6 -2 12 -11 12 -19 0 -8 5 -14 10 -14 7 0 7 6 0 20 -6
11 -16 20 -23 19 -9 0 -9 -2 1 -6z"/>
<path d="M6510 1360 c0 -16 5 -30 10 -30 6 0 10 6 10 14 0 8 3 21 6 30 4 11 1
16 -10 16 -11 0 -16 -9 -16 -30z"/>
<path d="M6733 1335 c-6 -14 -7 -25 -2 -25 11 0 22 25 17 39 -1 6 -8 -1 -15
-14z"/>
<path d="M2641 1274 c0 -11 3 -14 6 -6 3 7 2 16 -1 19 -3 4 -6 -2 -5 -13z"/>
<path d="M2640 1234 c0 -8 5 -12 10 -9 6 4 8 11 5 16 -9 14 -15 11 -15 -7z"/>
<path d="M6510 1240 c0 -5 7 -10 15 -10 8 0 15 5 15 10 0 6 -7 10 -15 10 -8 0
-15 -4 -15 -10z"/>
<path d="M2670 1210 c0 -11 5 -20 11 -20 5 0 9 -8 8 -17 -4 -40 1 -52 17 -46
12 5 15 2 11 -13 -18 -59 -18 -71 -2 -71 9 0 25 13 36 29 24 33 16 37 -13 6
-16 -19 -19 -20 -14 -5 3 10 6 32 6 48 0 21 5 29 18 30 11 0 12 2 4 6 -7 3
-20 -1 -29 -9 -15 -12 -16 -10 -9 15 4 16 2 27 -4 27 -5 0 -10 9 -10 20 0 11
-7 20 -15 20 -8 0 -15 -9 -15 -20z"/>
<path d="M6564 1208 c3 -13 6 -29 6 -35 0 -7 5 -13 10 -13 6 0 10 9 10 20 0
11 -5 20 -11 20 -6 0 -9 7 -5 15 3 8 0 15 -5 15 -7 0 -9 -9 -5 -22z"/>
<path d="M6033 1145 c0 -14 5 -25 12 -25 7 0 12 11 11 25 -1 33 -23 33 -23 0z"/>
<path d="M6477 1125 c-6 -15 10 -32 20 -21 4 3 1 6 -5 6 -6 0 -9 7 -6 15 4 8
4 15 1 15 -3 0 -7 -7 -10 -15z"/>
<path d="M6608 1103 c7 -3 16 -2 19 1 4 3 -2 6 -13 5 -11 0 -14 -3 -6 -6z"/>
<path d="M5910 1089 c0 -5 5 -7 10 -4 6 3 10 8 10 11 0 2 -4 4 -10 4 -5 0 -10
-5 -10 -11z"/>
<path d="M5891 1064 c0 -11 3 -14 6 -6 3 7 2 16 -1 19 -3 4 -6 -2 -5 -13z"/>
<path d="M5935 1070 c-3 -5 -1 -10 4 -10 6 0 11 5 11 10 0 6 -2 10 -4 10 -3 0
-8 -4 -11 -10z"/>
<path d="M6066 1071 c-4 -7 -5 -15 -2 -18 9 -9 19 4 14 18 -4 11 -6 11 -12 0z"/>
<path d="M2753 1045 c-7 -8 -11 -29 -9 -47 3 -18 5 -39 5 -45 1 -7 6 -13 12
-13 6 0 9 6 6 14 -3 8 1 17 10 20 14 6 14 8 -1 19 -14 10 -15 18 -7 40 11 29
4 35 -16 12z"/>
<path d="M5844 1035 c-3 -14 -4 -29 0 -32 3 -4 6 1 6 9 0 9 7 18 15 22 8 3 15
1 15 -4 0 -6 7 -10 15 -10 21 0 19 16 -2 24 -10 3 -23 9 -30 12 -7 3 -15 -5
-19 -21z"/>
<path d="M6240 980 c0 -11 4 -20 9 -20 5 0 7 9 4 20 -3 11 -7 20 -9 20 -2 0
-4 -9 -4 -20z"/>
<path d="M4880 896 c0 -9 5 -16 10 -16 6 0 10 4 10 9 0 6 -4 13 -10 16 -5 3
-10 -1 -10 -9z"/>
<path d="M5812 860 c-7 -11 -11 -20 -9 -20 2 0 14 9 27 20 15 13 18 20 9 20
-8 0 -20 -9 -27 -20z"/>
<path d="M3908 793 c-19 -5 -25 -43 -7 -43 5 0 7 5 4 11 -4 6 1 17 11 24 20
15 20 15 -8 8z"/>
<path d="M3696 782 c-12 -20 7 -50 35 -54 16 -3 29 -1 29 3 0 4 10 5 22 1 14
-3 19 -2 14 6 -4 7 -1 12 8 12 9 0 16 4 16 8 0 5 -20 8 -45 7 -31 -1 -45 3
-45 12 0 14 -26 18 -34 5z"/>
<path d="M3395 760 c-21 -23 -9 -45 19 -34 12 5 14 10 5 20 -6 7 -8 18 -4 24
10 17 -1 11 -20 -10z"/>
<path d="M3186 763 c-11 -11 -6 -23 8 -23 8 0 17 4 20 9 7 10 -19 23 -28 14z"/>
<path d="M3356 755 c-9 -26 -7 -32 5 -12 6 10 9 21 6 23 -2 3 -7 -2 -11 -11z"/>
<path d="M3275 750 c3 -5 8 -10 11 -10 2 0 4 5 4 10 0 6 -5 10 -11 10 -5 0 -7
-4 -4 -10z"/>
<path d="M4253 740 c1 -11 7 -20 13 -20 7 0 10 8 7 20 -3 11 -9 20 -14 20 -4
0 -7 -9 -6 -20z"/>
<path d="M3230 741 c0 -6 5 -13 10 -16 6 -3 10 1 10 9 0 9 -4 16 -10 16 -5 0
-10 -4 -10 -9z"/>
<path d="M3195 719 c-4 -6 -5 -12 -2 -15 2 -3 7 2 10 11 7 17 1 20 -8 4z"/>
<path d="M3266 721 c-3 -5 1 -11 9 -14 9 -4 12 -1 8 9 -6 16 -10 17 -17 5z"/>
<path d="M3775 693 c9 -37 10 -38 33 -15 18 18 18 19 1 31 -31 19 -42 14 -34
-16z"/>
<path d="M4137 713 c-3 -5 1 -13 8 -20 10 -9 14 -8 18 8 5 18 -16 28 -26 12z"/>
<path d="M3150 700 c-13 -8 -13 -10 2 -10 9 0 20 5 23 10 8 13 -5 13 -25 0z"/>
<path d="M3337 703 c-10 -9 -9 -23 2 -23 5 0 11 7 15 15 5 15 -5 20 -17 8z"/>
<path d="M4471 684 c0 -11 3 -14 6 -6 3 7 2 16 -1 19 -3 4 -6 -2 -5 -13z"/>
<path d="M3180 680 c0 -5 5 -10 10 -10 6 0 10 5 10 10 0 6 -4 10 -10 10 -5 0
-10 -4 -10 -10z"/>
<path d="M3448 683 c6 -2 18 -2 25 0 6 3 1 5 -13 5 -14 0 -19 -2 -12 -5z"/>
<path d="M4720 680 c0 -5 5 -10 10 -10 6 0 10 5 10 10 0 6 -4 10 -10 10 -5 0
-10 -4 -10 -10z"/>
<path d="M3146 629 c-8 -43 -8 -69 2 -69 5 0 9 23 10 50 1 57 -3 64 -12 19z"/>
<path d="M5235 640 c-11 -17 5 -32 21 -19 8 6 14 15 14 20 0 12 -27 11 -35 -1z"/>
<path d="M3790 585 c0 -14 5 -25 10 -25 6 0 10 11 10 25 0 14 -4 25 -10 25 -5
0 -10 -11 -10 -25z"/>
<path d="M3037 579 c4 -13 8 -18 11 -10 2 7 -1 18 -6 23 -8 8 -9 4 -5 -13z"/>
<path d="M3841 584 c0 -11 3 -14 6 -6 3 7 2 16 -1 19 -3 4 -6 -2 -5 -13z"/>
<path d="M3076 581 c-4 -6 -3 -18 2 -27 6 -11 11 -13 16 -5 4 6 3 18 -2 27 -6
11 -11 13 -16 5z"/>
<path d="M3115 550 c3 -5 8 -10 11 -10 2 0 4 5 4 10 0 6 -5 10 -11 10 -5 0 -7
-4 -4 -10z"/>
<path d="M4850 550 c0 -5 5 -10 11 -10 5 0 7 5 4 10 -3 6 -8 10 -11 10 -2 0
-4 -4 -4 -10z"/>
<path d="M5280 549 c0 -5 5 -7 10 -4 6 3 10 8 10 11 0 2 -4 4 -10 4 -5 0 -10
-5 -10 -11z"/>
<path d="M3143 533 c-26 -5 -28 -10 -10 -27 21 -21 45 -25 57 -10 10 11 10 14
0 14 -7 0 -10 7 -6 15 5 15 1 16 -41 8z"/>
<path d="M4690 509 c0 -12 25 -22 41 -17 6 2 0 9 -15 16 -16 7 -26 8 -26 1z"/>
<path d="M5295 510 c3 -5 11 -10 16 -10 6 0 7 5 4 10 -3 6 -11 10 -16 10 -6 0
-7 -4 -4 -10z"/>
<path d="M5370 501 c-7 -15 -7 -21 0 -21 12 0 25 28 17 36 -3 3 -10 -4 -17
-15z"/>
<path d="M3840 494 c0 -8 5 -12 10 -9 6 3 10 10 10 16 0 5 -4 9 -10 9 -5 0
-10 -7 -10 -16z"/>
<path d="M5330 499 c0 -5 5 -7 10 -4 6 3 10 8 10 11 0 2 -4 4 -10 4 -5 0 -10
-5 -10 -11z"/>
<path d="M4097 483 c-15 -15 -6 -33 17 -33 19 0 23 4 19 20 -5 20 -23 26 -36
13z"/>
<path d="M5800 445 c0 -8 5 -15 10 -15 6 0 10 7 10 15 0 8 -4 15 -10 15 -5 0
-10 -7 -10 -15z"/>
<path d="M4000 419 c0 -5 5 -7 10 -4 6 3 10 8 10 11 0 2 -4 4 -10 4 -5 0 -10
-5 -10 -11z"/>
<path d="M4916 397 c3 -10 9 -15 12 -12 3 3 0 11 -7 18 -10 9 -11 8 -5 -6z"/>
<path d="M4265 390 c-3 -5 1 -10 10 -10 9 0 13 5 10 10 -3 6 -8 10 -10 10 -2
0 -7 -4 -10 -10z"/>
<path d="M4302 370 c-10 -17 -10 -20 3 -20 8 0 15 9 15 20 0 11 -1 20 -3 20
-1 0 -8 -9 -15 -20z"/>
<path d="M5761 374 c0 -11 3 -14 6 -6 3 7 2 16 -1 19 -3 4 -6 -2 -5 -13z"/>
<path d="M4000 360 c0 -5 5 -10 10 -10 6 0 10 5 10 10 0 6 -4 10 -10 10 -5 0
-10 -4 -10 -10z"/>
<path d="M4190 366 c0 -2 7 -9 15 -16 9 -7 15 -8 15 -2 0 5 -7 12 -15 16 -8 3
-15 4 -15 2z"/>
<path d="M4930 349 c0 -5 5 -7 10 -4 6 3 10 8 10 11 0 2 -4 4 -10 4 -5 0 -10
-5 -10 -11z"/>
<path d="M5055 320 c3 -5 8 -10 11 -10 2 0 4 5 4 10 0 6 -5 10 -11 10 -5 0 -7
-4 -4 -10z"/>
<path d="M4170 285 c0 -8 4 -15 9 -15 5 0 11 7 15 15 3 9 0 15 -9 15 -8 0 -15
-7 -15 -15z"/>
<path d="M4211 283 c-1 -13 -5 -23 -10 -23 -10 0 -21 -36 -13 -44 3 -3 10 1
16 9 6 9 24 18 40 21 25 4 28 3 17 -10 -7 -8 -11 -23 -8 -33 4 -16 6 -15 12 5
5 16 13 21 25 17 10 -3 21 -1 25 5 3 5 1 10 -5 10 -6 0 -8 5 -5 10 4 6 -8 10
-28 10 -25 0 -39 7 -50 23 l-16 22 0 -22z"/>
<path d="M4240 284 c0 -8 5 -12 10 -9 6 4 8 11 5 16 -9 14 -15 11 -15 -7z"/>
<path d="M4090 240 c0 -5 5 -10 10 -10 6 0 10 5 10 10 0 6 -4 10 -10 10 -5 0
-10 -4 -10 -10z"/>
<path d="M4231 204 c0 -11 3 -14 6 -6 3 7 2 16 -1 19 -3 4 -6 -2 -5 -13z"/>
<path d="M1848 2333 c7 -3 16 -2 19 1 4 3 -2 6 -13 5 -11 0 -14 -3 -6 -6z"/>
<path d="M2170 1360 c0 -5 5 -10 10 -10 6 0 10 5 10 10 0 6 -4 10 -10 10 -5 0
-10 -4 -10 -10z"/>
<path d="M2350 940 c0 -5 5 -10 10 -10 6 0 10 5 10 10 0 6 -4 10 -10 10 -5 0
-10 -4 -10 -10z"/>
<path d="M1547 4089 c-4 -16 -3 -18 9 -8 7 6 11 15 8 20 -8 13 -11 11 -17 -12z"/>
<path d="M1522 4045 c-11 -12 -10 -15 3 -15 8 0 15 7 15 15 0 18 -2 18 -18 0z"/>
<path d="M1290 3710 c0 -5 5 -10 10 -10 6 0 10 5 10 10 0 6 -4 10 -10 10 -5 0
-10 -4 -10 -10z"/>
<path d="M1336 3525 c-3 -8 -1 -15 4 -15 6 0 10 7 10 15 0 8 -2 15 -4 15 -2 0
-6 -7 -10 -15z"/>
<path d="M1355 3420 c-15 -16 -15 -22 -5 -35 17 -20 32 -19 28 3 -1 9 1 22 5
29 13 21 -10 23 -28 3z"/>
<path d="M1310 3375 c0 -8 5 -15 10 -15 6 0 10 7 10 15 0 8 -4 15 -10 15 -5 0
-10 -7 -10 -15z"/>
<path d="M1290 3310 c0 -5 5 -10 10 -10 6 0 10 5 10 10 0 6 -4 10 -10 10 -5 0
-10 -4 -10 -10z"/>
<path d="M1431 3158 c0 -9 -8 -21 -18 -26 -10 -6 -14 -16 -10 -26 9 -23 30
-20 24 4 -3 10 0 21 5 22 6 2 8 13 5 23 -4 16 -5 16 -6 3z"/>
<path d="M1413 3025 c0 -8 4 -15 9 -15 4 0 8 7 8 15 0 8 -4 15 -8 15 -5 0 -9
-7 -9 -15z"/>
<path d="M1396 2873 c-13 -106 -16 -183 -7 -183 8 0 13 34 26 193 5 54 -12 45
-19 -10z"/>
<path d="M1792 1950 c0 -14 2 -19 5 -12 2 6 2 18 0 25 -3 6 -5 1 -5 -13z"/>
<path d="M1810 1016 c0 -2 7 -6 15 -10 8 -3 15 -1 15 4 0 6 -7 10 -15 10 -8 0
-15 -2 -15 -4z"/>
<path d="M5242 2821 c4 -13 18 -16 19 -4 0 4 -5 9 -11 12 -7 2 -11 -2 -8 -8z"/>
<path d="M5295 2790 c3 -5 11 -10 16 -10 6 0 7 5 4 10 -3 6 -11 10 -16 10 -6
0 -7 -4 -4 -10z"/>
<path d="M5360 2776 c0 -11 30 -39 36 -34 2 3 -5 13 -16 23 -11 10 -20 15 -20
11z"/>
<path d="M5417 2736 c-4 -10 0 -14 12 -13 11 1 17 7 14 14 -7 17 -20 17 -26
-1z"/>
<path d="M5655 2620 c3 -5 15 -10 26 -10 11 0 17 5 14 10 -3 6 -15 10 -26 10
-11 0 -17 -4 -14 -10z"/>
<path d="M5731 2584 c14 -17 62 -19 57 -3 -2 7 -18 13 -36 14 -27 2 -31 0 -21
-11z"/>
<path d="M5840 2559 c0 -6 -4 -7 -10 -4 -5 3 -10 1 -10 -4 0 -6 11 -11 24 -11
13 0 31 -3 40 -6 9 -3 16 -2 16 3 0 5 -13 14 -30 20 -18 7 -30 7 -30 2z"/>
<path d="M6038 2473 c7 -3 16 -2 19 1 4 3 -2 6 -13 5 -11 0 -14 -3 -6 -6z"/>
<path d="M6236 2406 c3 -8 14 -16 25 -19 25 -7 24 -3 -6 17 -19 13 -23 13 -19
2z"/>
<path d="M5840 2391 c0 -5 5 -13 10 -16 6 -3 10 -2 10 4 0 5 -4 13 -10 16 -5
3 -10 2 -10 -4z"/>
<path d="M6340 2360 c0 -5 7 -10 16 -10 8 0 12 5 9 10 -3 6 -10 10 -16 10 -5
0 -9 -4 -9 -10z"/>
<path d="M6402 2305 c-1 -19 2 -35 7 -35 9 0 9 55 0 64 -3 4 -6 -10 -7 -29z"/>
<path d="M6863 2005 c-3 -9 -3 -18 -1 -21 3 -3 8 4 11 16 6 23 -1 27 -10 5z"/>
<path d="M7350 1951 c0 -6 5 -13 12 -17 6 -4 8 -3 4 4 -3 5 0 13 6 15 8 3 6 6
-4 6 -10 1 -18 -3 -18 -8z"/>
<path d="M7595 3150 c-8 -13 4 -50 16 -50 14 0 11 20 -3 20 -7 0 -5 5 5 11 9
6 15 14 12 20 -8 12 -22 12 -30 -1z"/>
<path d="M8725 1609 c-11 -17 1 -21 15 -4 8 9 8 15 2 15 -6 0 -14 -5 -17 -11z"/>
<path d="M6365 580 c3 -5 8 -10 11 -10 2 0 4 5 4 10 0 6 -5 10 -11 10 -5 0 -7
-4 -4 -10z"/>
<path d="M3421 176 c-9 -10 -8 -15 4 -20 10 -4 15 1 15 14 0 24 -4 25 -19 6z"/>
</g>
</svg>
